<?xml version="1.0" standalone="no"?>
<!DOCTYPE svg PUBLIC "-//W3C//DTD SVG 20010904//EN"
 "http://www.w3.org/TR/2001/REC-SVG-20010904/DTD/svg10.dtd">
<svg version="1.0" xmlns="http://www.w3.org/2000/svg"
 width="1105.000000pt" height="1077.000000pt" viewBox="0 0 1105.000000 1077.000000"
 preserveAspectRatio="xMidYMid meet">

<g transform="translate(0.000000,1077.000000) scale(0.100000,-0.100000)"
fill="#000000" stroke="none">
<path d="M4646 10742 c-8 -16 -21 -34 -28 -40 -8 -6 -86 -25 -173 -42 -222
-44 -467 -110 -690 -186 -204 -70 -282 -111 -411 -215 -220 -178 -295 -352
-267 -612 7 -56 10 -104 7 -106 -2 -2 -19 4 -39 14 -19 11 -37 16 -41 12 -4
-4 -22 3 -41 14 -18 12 -40 19 -47 16 -7 -3 -26 3 -42 14 -16 10 -42 19 -57
19 -16 0 -35 7 -43 15 -9 8 -29 15 -45 15 -17 0 -37 7 -45 15 -9 9 -34 15 -60
15 -27 0 -52 6 -60 15 -9 9 -34 15 -60 15 -27 0 -52 6 -60 15 -11 11 -37 15
-90 15 -54 0 -80 4 -90 15 -13 13 -57 15 -268 15 -213 0 -256 -2 -266 -15 -8
-9 -30 -15 -60 -15 -30 0 -52 -6 -60 -15 -7 -8 -27 -15 -45 -15 -18 0 -38 -7
-45 -15 -7 -8 -20 -15 -30 -15 -10 0 -23 -7 -30 -15 -7 -8 -19 -15 -28 -15 -8
0 -38 -19 -66 -43 -28 -23 -70 -55 -93 -71 -23 -15 -54 -46 -69 -69 -16 -23
-48 -65 -71 -93 -24 -28 -43 -58 -43 -66 0 -9 -7 -21 -15 -28 -8 -7 -15 -20
-15 -30 0 -10 -7 -23 -15 -30 -8 -7 -15 -27 -15 -45 0 -18 -7 -38 -15 -45 -10
-9 -15 -32 -15 -75 0 -43 -5 -66 -15 -75 -22 -18 -22 -421 0 -444 10 -10 15
-35 15 -76 0 -58 -3 -66 -48 -129 -76 -104 -251 -401 -344 -581 -224 -432
-408 -960 -503 -1440 l-32 -164 -36 -23 -37 -23 0 -77 0 -76 26 24 27 24 -7
-45 c-42 -304 -55 -586 -32 -732 39 -247 110 -473 183 -581 109 -162 243 -245
467 -292 172 -37 309 -44 626 -35 157 4 287 6 289 4 2 -2 -3 -12 -12 -22 -10
-10 -17 -25 -17 -33 0 -9 -13 -28 -30 -44 -16 -16 -30 -36 -30 -45 0 -9 -13
-29 -30 -45 -16 -16 -30 -36 -30 -45 0 -33 -22 -40 -131 -40 -82 0 -109 -3
-119 -15 -7 -8 -27 -15 -44 -15 -23 0 -41 -9 -61 -30 -16 -16 -36 -30 -46 -30
-9 0 -22 -7 -29 -15 -16 -19 -34 -19 -50 0 -7 8 -27 15 -46 15 -18 0 -39 6
-46 13 -7 8 -26 17 -41 21 -15 3 -27 11 -27 16 0 6 -9 10 -19 10 -11 0 -26 6
-33 13 -7 8 -26 17 -41 21 -15 3 -27 11 -27 16 0 6 -9 10 -19 10 -11 0 -26 6
-33 13 -7 8 -26 17 -41 21 -15 3 -27 11 -27 16 0 6 -9 10 -19 10 -11 0 -26 6
-33 13 -7 8 -26 17 -41 21 -15 3 -27 11 -27 16 0 6 -9 10 -20 10 -11 0 -47 27
-81 60 -46 46 -67 60 -90 60 -21 0 -41 12 -75 45 -25 25 -52 45 -60 45 -7 0
-34 20 -59 44 l-45 45 0 -74 c0 -47 5 -78 12 -85 14 -11 84 -66 119 -92 13
-10 37 -18 54 -18 20 -1 37 -9 50 -27 19 -24 38 -44 76 -78 9 -8 25 -15 36
-15 12 0 23 -7 27 -15 3 -8 16 -15 30 -15 13 0 26 -7 30 -15 3 -8 16 -15 30
-15 13 0 26 -7 30 -15 3 -8 16 -15 30 -15 13 0 26 -7 30 -15 3 -8 16 -15 30
-15 13 0 26 -7 30 -15 3 -8 16 -15 30 -15 13 0 26 -7 30 -15 3 -8 16 -15 30
-15 13 0 26 -7 30 -15 3 -8 16 -15 30 -15 13 0 26 -7 30 -15 3 -10 19 -15 45
-15 25 0 41 -5 45 -15 3 -8 16 -15 30 -15 13 0 26 -7 30 -15 12 -32 70 -18
140 35 79 59 98 70 124 70 11 0 25 7 32 15 10 12 37 15 119 15 119 1 132 7
170 76 23 41 57 92 90 136 12 14 21 31 21 36 0 12 36 72 65 108 18 23 30 26
130 34 61 5 131 12 157 15 l48 6 -7 -33 c-3 -18 -17 -44 -32 -58 -14 -14 -34
-41 -45 -60 -10 -19 -24 -39 -30 -45 -6 -5 -20 -27 -31 -49 -11 -21 -26 -40
-32 -43 -7 -3 -13 -16 -13 -29 0 -14 -7 -27 -15 -30 -8 -4 -15 -17 -15 -30 0
-12 -6 -27 -12 -31 -19 -12 -48 -68 -48 -93 0 -12 14 -42 30 -67 17 -24 30
-55 30 -69 0 -14 9 -37 20 -51 14 -18 20 -41 20 -78 0 -60 19 -85 67 -85 17 0
36 -7 43 -15 7 -8 20 -15 30 -15 10 0 23 -7 30 -15 9 -10 32 -15 75 -15 43 0
66 -5 75 -15 8 -9 30 -15 60 -15 30 0 52 -6 60 -15 7 -8 27 -15 45 -15 18 0
38 -7 45 -15 9 -10 32 -15 75 -15 43 0 66 -5 75 -15 9 -10 32 -15 75 -15 43 0
66 -5 75 -15 9 -11 33 -15 91 -15 56 0 82 -4 93 -15 10 -10 35 -15 75 -15 38
0 65 -5 74 -14 12 -13 22 -7 73 45 32 32 63 59 69 59 6 0 26 13 45 30 l35 29
143 1 144 0 86 89 c48 49 104 110 126 135 21 25 43 46 48 46 19 0 128 102 128
119 0 18 39 61 56 61 5 0 41 29 78 64 l69 64 95 -97 95 -96 -92 99 c-83 88
-91 100 -78 115 42 47 20 108 -70 195 -29 29 -53 58 -53 66 0 7 -13 35 -30 62
-16 26 -30 54 -30 62 0 7 -7 19 -15 26 -8 7 -15 27 -15 45 0 18 -7 38 -15 45
-8 7 -15 27 -15 45 0 18 -7 38 -15 45 -8 7 -15 27 -15 45 0 18 -7 38 -15 45
-8 7 -15 27 -15 45 0 18 -7 38 -15 45 -11 9 -15 35 -15 105 0 70 -4 96 -15
105 -8 7 -15 20 -15 28 0 22 -50 72 -72 72 -16 0 -18 9 -18 68 0 114 10 172
30 172 21 0 40 22 68 78 18 34 22 60 22 128 0 63 4 89 15 100 8 9 15 29 15 45
0 17 7 37 15 45 8 9 15 29 15 45 0 17 7 37 15 45 8 9 15 29 15 45 0 17 7 37
15 45 8 9 15 29 15 45 0 17 7 37 15 45 8 9 15 24 15 35 0 10 4 19 8 19 9 0 52
81 52 99 0 14 31 46 59 61 12 6 21 17 21 25 0 8 6 18 14 22 17 10 56 82 56
104 0 26 190 209 217 209 25 0 73 26 86 47 4 7 13 13 19 13 9 0 26 13 98 73 8
7 32 21 53 32 20 11 37 23 37 27 0 5 9 8 19 8 11 0 26 6 33 13 7 8 26 17 41
21 15 3 27 11 27 16 0 6 15 10 34 10 19 0 41 7 50 15 8 9 33 15 60 15 26 0 51
6 60 15 8 8 28 15 45 15 16 0 36 7 45 15 10 10 35 15 75 15 40 0 65 5 75 15 8
9 33 15 60 15 33 0 52 6 75 26 31 25 34 26 150 23 107 -4 122 -6 143 -26 18
-17 36 -23 70 -23 28 0 50 -6 58 -15 9 -10 32 -15 75 -15 43 0 66 -5 75 -15 7
-8 27 -15 45 -15 18 0 38 -7 45 -15 8 -9 30 -15 60 -15 30 0 52 -6 60 -15 7
-8 27 -15 45 -15 18 0 38 -7 45 -15 7 -8 20 -15 30 -15 10 0 23 -7 30 -15 7
-8 19 -15 27 -15 18 0 139 -78 208 -135 28 -22 64 -47 80 -54 17 -7 40 -19 53
-25 35 -18 202 -185 202 -202 0 -30 41 -94 94 -145 30 -28 56 -64 59 -78 3
-14 17 -43 31 -64 14 -21 26 -44 26 -51 0 -8 7 -19 15 -26 8 -7 15 -27 15 -45
0 -18 7 -38 15 -45 8 -7 15 -27 15 -45 0 -18 7 -38 15 -45 8 -7 15 -27 15 -45
0 -18 7 -38 15 -45 8 -7 15 -27 15 -45 0 -18 7 -38 15 -45 11 -9 15 -35 15
-105 0 -70 4 -96 15 -105 8 -7 15 -20 15 -29 0 -22 41 -61 63 -61 15 0 17 -14
17 -120 0 -104 -2 -120 -16 -120 -24 0 -64 -42 -64 -66 0 -12 -7 -24 -15 -28
-12 -4 -15 -26 -15 -105 0 -79 -3 -100 -15 -105 -10 -3 -15 -19 -15 -45 0 -25
-5 -41 -15 -45 -10 -3 -15 -19 -15 -45 0 -25 -5 -41 -15 -45 -10 -3 -15 -19
-15 -46 0 -27 -5 -43 -15 -46 -10 -4 -15 -20 -15 -45 0 -26 -5 -42 -15 -45 -8
-4 -15 -17 -15 -30 0 -12 -6 -27 -12 -31 -18 -11 -48 -68 -48 -90 0 -10 -14
-30 -30 -43 -67 -54 -120 -128 -120 -168 0 -10 10 -32 21 -47 l22 -27 -93 -93
-93 -93 -44 24 c-43 24 -44 25 -75 7 -17 -10 -39 -24 -47 -31 -9 -7 -32 -26
-52 -42 -20 -17 -41 -30 -47 -30 -5 0 -12 -6 -15 -12 -3 -7 -22 -22 -43 -33
-22 -11 -43 -25 -47 -32 -4 -7 -19 -13 -31 -13 -13 0 -26 -7 -30 -15 -3 -8
-16 -15 -30 -15 -13 0 -26 -7 -30 -15 -3 -10 -19 -15 -46 -15 -27 0 -43 -5
-46 -15 -5 -11 -21 -15 -60 -15 -39 0 -56 -4 -60 -15 -4 -10 -20 -15 -45 -15
-26 0 -42 -5 -45 -15 -5 -11 -23 -15 -75 -15 -53 0 -71 -4 -75 -15 -4 -11 -21
-15 -56 -15 -62 0 -98 -28 -98 -76 l0 -32 -74 -7 c-41 -3 -95 -3 -120 0 -44 7
-46 9 -46 39 0 48 -35 76 -92 76 -28 0 -50 6 -58 15 -9 10 -32 15 -75 15 -43
0 -66 5 -75 15 -7 8 -27 15 -45 15 -18 0 -38 7 -45 15 -8 9 -30 15 -60 15 -30
0 -52 6 -60 15 -7 8 -27 15 -45 15 -18 0 -38 7 -45 15 -7 8 -20 15 -30 15 -10
0 -23 7 -30 15 -7 8 -18 15 -26 15 -18 0 -111 61 -207 135 -101 79 -104 80
-148 59 -22 -11 -42 -27 -45 -36 -3 -10 -11 -18 -18 -18 -7 0 -36 -26 -65 -58
-28 -31 -77 -85 -108 -119 -31 -35 -61 -63 -68 -63 -11 0 -189 -182 -289 -295
-46 -52 -48 -56 -33 -73 22 -24 23 -124 2 -142 -10 -8 -15 -30 -15 -62 0 -40
-7 -60 -36 -104 -20 -31 -54 -69 -75 -86 -29 -23 -39 -39 -39 -60 0 -16 6 -31
15 -34 19 -8 21 -84 3 -103 -10 -11 -10 -14 0 -18 8 -3 12 -31 12 -89 0 -66 3
-86 15 -90 11 -5 15 -21 15 -60 0 -39 4 -56 15 -60 11 -5 15 -23 15 -74 0 -48
4 -71 15 -80 9 -8 15 -30 15 -60 0 -30 6 -52 15 -60 9 -8 15 -30 15 -60 0 -30
6 -52 15 -60 9 -8 15 -30 15 -60 0 -30 6 -52 15 -60 10 -9 15 -32 15 -74 0
-52 4 -66 23 -84 14 -13 36 -22 54 -22 17 0 36 -7 43 -15 7 -8 27 -15 45 -15
18 0 38 -7 45 -15 7 -8 23 -15 35 -15 12 0 28 -7 35 -15 7 -8 17 -15 23 -15 6
0 25 -14 42 -30 28 -27 33 -29 45 -15 7 8 20 15 30 15 10 0 20 7 24 15 3 8 16
15 30 15 19 0 25 6 28 28 3 25 7 27 53 32 47 5 95 26 95 42 0 3 20 16 44 28
24 11 47 27 50 35 3 8 17 15 31 15 14 0 25 4 25 9 0 5 20 19 45 31 25 12 45
25 45 30 0 5 20 18 45 30 25 12 45 26 45 31 0 5 11 14 24 19 25 9 67 41 95 73
8 9 20 17 26 17 12 0 69 44 94 73 9 9 26 17 38 17 13 0 23 4 23 10 0 5 15 16
33 24 17 7 44 25 60 39 26 25 27 29 27 135 0 85 3 112 15 122 8 7 15 21 15 32
0 10 7 21 15 24 8 4 15 16 15 28 0 25 38 66 61 66 9 0 32 16 52 36 31 32 34
38 22 51 -19 19 -19 64 0 89 12 16 14 75 15 354 l0 335 130 1 130 1 0 -337 c0
-288 2 -339 15 -350 18 -15 20 -81 3 -98 -9 -9 -4 -20 22 -47 19 -19 41 -35
50 -35 18 0 60 -40 60 -58 0 -6 14 -31 30 -55 29 -43 30 -49 30 -154 0 -101 2
-111 23 -130 32 -29 116 -83 129 -83 6 0 34 -18 62 -40 134 -106 160 -126 175
-135 9 -5 32 -22 52 -37 20 -16 40 -28 44 -28 4 0 24 -13 45 -30 21 -16 42
-30 48 -30 5 0 15 -7 22 -15 7 -8 19 -15 27 -15 8 0 32 -14 53 -30 21 -17 41
-30 45 -30 4 0 24 -13 45 -30 30 -24 48 -30 84 -30 44 0 47 -2 53 -30 4 -20
11 -30 24 -30 10 0 21 -5 24 -10 4 -6 22 -17 41 -25 28 -12 39 -12 55 -2 10 6
19 15 19 19 0 9 83 48 102 48 9 0 18 7 22 15 3 10 19 15 45 15 25 0 41 5 45
15 3 9 19 15 41 15 56 0 75 27 75 105 0 49 4 67 15 71 11 5 15 21 15 60 0 39
4 56 15 60 11 5 15 21 15 60 0 39 4 56 15 60 11 5 15 21 15 60 0 39 4 56 15
60 11 5 15 23 15 74 0 48 4 71 15 80 9 8 15 30 15 60 0 30 6 52 15 60 11 9 15
33 15 90 0 56 4 81 15 90 13 11 13 14 0 27 -19 19 -19 77 0 93 31 26 18 63
-45 128 -33 33 -60 67 -60 75 0 8 -7 20 -15 27 -10 8 -15 30 -15 62 0 31 -6
55 -15 64 -20 21 -20 107 0 124 25 21 17 44 -30 90 -25 24 -45 49 -45 55 0 12
-219 231 -237 236 -19 6 -123 109 -123 122 0 16 -102 117 -118 117 -23 0 -11
16 81 108 l93 92 64 -60 c36 -33 71 -60 78 -60 17 0 61 -51 62 -71 0 -15 101
-109 117 -109 13 0 93 -84 93 -97 0 -6 39 -47 86 -92 l85 -81 143 0 143 0 34
-30 c19 -16 39 -30 46 -30 6 0 38 -27 71 -60 51 -51 62 -57 72 -45 9 10 32 15
75 15 43 0 66 5 75 15 9 11 33 15 90 15 57 0 81 4 90 15 9 10 32 15 75 15 43
0 66 5 75 15 9 11 32 15 80 15 51 0 69 4 74 15 3 10 19 15 45 15 25 0 41 5 45
15 4 11 21 15 60 15 39 0 55 4 60 15 4 11 22 15 75 15 52 0 70 4 75 15 3 8 16
15 30 15 13 0 26 7 30 15 3 9 19 15 41 15 56 0 75 27 75 105 0 44 4 66 14 72
8 4 15 16 17 26 3 15 39 -5 199 -106 308 -195 435 -293 581 -452 211 -229 248
-440 134 -758 -45 -125 -120 -289 -128 -280 -4 3 -7 30 -7 59 0 37 -4 54 -15
58 -11 4 -15 21 -15 60 0 39 -4 55 -15 60 -11 4 -15 21 -15 60 0 39 -4 55 -15
60 -8 3 -15 16 -15 30 0 13 -7 26 -15 30 -10 3 -15 19 -15 45 0 25 -5 41 -15
45 -10 3 -15 19 -15 45 0 25 -5 41 -15 45 -8 3 -15 16 -15 30 0 13 -7 26 -15
30 -8 3 -15 16 -15 30 0 13 -7 26 -15 30 -11 4 -15 21 -15 61 0 30 -4 55 -10
55 -5 0 -13 12 -16 27 -15 57 -28 63 -152 63 -91 0 -114 3 -118 15 -4 8 -16
15 -28 15 -13 0 -50 30 -96 75 -41 41 -83 75 -93 75 -10 0 -20 7 -23 15 -8 19
-38 19 -54 0 -7 -8 -27 -15 -45 -15 -18 0 -38 -7 -45 -15 -9 -10 -32 -15 -75
-15 -43 0 -66 -5 -75 -15 -7 -8 -20 -15 -30 -15 -10 0 -23 -7 -30 -15 -9 -11
-33 -15 -90 -15 -57 0 -81 -4 -90 -15 -8 -9 -30 -15 -60 -15 -30 0 -52 -6 -60
-15 -9 -11 -35 -15 -105 -15 -70 0 -96 -4 -105 -15 -9 -10 -32 -15 -75 -15
-43 0 -66 -5 -75 -15 -7 -8 -23 -15 -35 -15 -13 0 -25 -7 -29 -15 -6 -18 -76
-21 -93 -4 -21 21 -53 -12 -53 -53 0 -20 -6 -41 -12 -45 -17 -10 -78 -89 -78
-100 0 -4 -11 -18 -24 -30 -18 -18 -36 -23 -73 -23 -38 0 -51 -4 -61 -21 -10
-15 -11 -24 -3 -32 16 -16 13 -57 -4 -63 -8 -4 -15 -17 -15 -30 0 -14 -7 -27
-15 -30 -12 -5 -15 -25 -15 -89 0 -61 -4 -86 -15 -95 -10 -9 -15 -32 -15 -75
0 -43 -5 -66 -15 -75 -11 -9 -15 -33 -15 -90 0 -57 -4 -81 -15 -90 -8 -7 -15
-27 -15 -45 0 -18 -7 -38 -15 -45 -10 -9 -15 -32 -15 -75 0 -43 -5 -66 -15
-75 -9 -8 -15 -30 -15 -60 0 -30 -6 -52 -15 -60 -12 -10 -15 -36 -15 -115 0
-100 1 -102 30 -131 16 -16 30 -36 30 -44 0 -8 20 -35 45 -60 41 -41 44 -49
45 -96 0 -37 4 -54 15 -58 12 -4 15 -23 15 -81 0 -74 1 -76 30 -93 16 -9 30
-20 30 -24 0 -5 15 -8 34 -8 19 0 41 -7 50 -15 8 -8 31 -15 51 -15 22 0 38 -6
41 -15 4 -8 14 -15 24 -15 10 0 25 -7 34 -15 8 -8 31 -15 51 -15 22 0 38 -6
41 -15 4 -10 20 -15 45 -15 26 0 42 -5 45 -15 4 -10 20 -15 45 -15 26 0 42 -5
45 -15 4 -10 20 -15 45 -15 26 0 42 -5 45 -15 5 -11 21 -15 60 -15 39 0 56 -4
60 -15 5 -11 21 -15 60 -15 36 0 56 -5 61 -14 5 -9 27 -16 56 -18 l47 -3 -172
-111 c-220 -141 -475 -281 -698 -383 -173 -79 -178 -80 -385 -120 -274 -53
-383 -69 -535 -77 -140 -7 -310 10 -291 29 6 6 11 17 11 25 0 8 14 31 30 52
17 21 30 49 30 62 0 14 13 37 30 53 17 16 30 39 30 51 0 12 7 27 15 34 8 7 15
18 15 25 0 7 7 18 15 25 8 7 15 20 15 30 0 10 7 23 15 30 8 7 15 27 15 45 0
18 7 38 15 45 8 7 15 20 15 30 0 10 7 23 15 30 8 7 15 20 15 30 0 10 7 23 15
30 24 20 18 68 -11 95 -14 13 -34 41 -45 61 -10 21 -26 42 -34 47 -8 4 -15 19
-15 31 0 13 -7 26 -15 30 -8 3 -15 16 -15 30 0 13 -7 26 -15 30 -8 3 -15 16
-15 30 0 13 -7 26 -15 30 -20 7 -20 65 0 72 10 4 15 21 15 53 0 51 -16 73 -63
85 -15 3 -27 11 -27 16 0 6 -9 10 -19 10 -11 0 -26 7 -35 15 -8 8 -23 15 -34
15 -11 0 -25 7 -32 15 -7 8 -18 15 -25 15 -8 0 -27 14 -43 30 -25 24 -39 30
-75 30 -33 0 -51 6 -71 25 -14 13 -26 29 -26 34 0 19 -70 89 -95 95 -14 4 -25
11 -25 16 0 6 -8 10 -18 10 -11 0 -40 20 -66 45 -27 25 -54 45 -60 45 -7 0
-28 14 -46 30 -20 18 -45 30 -61 30 -30 0 -89 51 -89 76 0 8 -6 14 -13 14 -25
0 -68 46 -91 96 -55 120 -165 172 -280 134 -45 -14 -122 -100 -137 -151 -7
-21 -18 -39 -25 -39 -19 0 -94 -52 -94 -66 0 -19 -59 -64 -84 -64 -12 0 -37
-13 -56 -30 -19 -16 -40 -29 -46 -30 -6 0 -32 -18 -56 -40 -25 -22 -56 -44
-69 -50 -62 -28 -139 -92 -139 -115 0 -6 -13 -23 -28 -38 -22 -21 -38 -27 -73
-27 -36 0 -51 -5 -69 -25 -25 -27 -92 -65 -114 -65 -7 0 -19 -7 -26 -15 -7 -8
-20 -15 -30 -15 -10 0 -23 -7 -30 -15 -7 -8 -20 -15 -30 -15 -46 0 -70 -101
-33 -142 15 -17 13 -24 -37 -126 -29 -59 -64 -121 -77 -138 -13 -17 -23 -35
-23 -40 0 -6 -16 -25 -35 -44 -37 -36 -45 -70 -20 -90 8 -7 15 -20 15 -30 0
-10 7 -23 15 -30 8 -7 15 -19 15 -27 0 -7 10 -27 21 -43 13 -17 20 -37 16 -49
-3 -12 -1 -23 4 -26 4 -3 28 -45 51 -93 23 -48 55 -102 70 -120 15 -18 28 -44
28 -59 0 -14 13 -40 30 -60 17 -18 30 -42 30 -53 0 -10 6 -20 13 -23 9 -3 9
-7 0 -17 -17 -19 -244 -25 -386 -11 -67 7 -223 30 -347 52 l-224 38 -185 83
c-244 109 -506 249 -721 386 -96 61 -184 118 -195 126 -19 15 -18 15 21 16 24
0 47 6 54 15 8 9 30 15 60 15 30 0 52 6 60 15 8 9 30 15 60 15 30 0 52 6 60
15 7 8 27 15 45 15 18 0 38 7 45 15 7 8 27 15 45 15 18 0 38 7 45 15 7 8 27
15 45 15 18 0 38 7 45 15 7 8 27 15 45 15 18 0 38 7 45 15 7 8 20 15 30 15 10
0 23 7 30 15 7 8 27 15 45 15 18 0 38 7 45 15 7 8 27 15 44 15 22 0 43 10 69
34 35 32 37 37 37 99 0 45 4 68 15 77 9 8 15 30 15 58 0 37 6 53 37 90 21 25
54 71 75 101 37 55 38 58 38 149 0 73 -3 94 -15 98 -11 5 -15 21 -15 60 0 39
-4 56 -15 60 -11 5 -15 23 -15 75 0 53 -4 71 -15 75 -10 4 -15 20 -15 45 0 26
-5 42 -15 45 -12 5 -15 25 -15 90 0 66 -3 86 -15 90 -11 5 -15 23 -15 75 0 53
-4 71 -15 75 -12 5 -15 25 -15 89 0 61 -4 86 -15 95 -8 7 -15 19 -15 27 0 8
-9 26 -19 40 -20 24 -18 51 3 65 6 4 3 14 -8 27 -14 15 -31 21 -65 21 -35 0
-51 6 -73 27 -15 15 -28 31 -28 36 0 5 -20 33 -45 61 -32 38 -45 62 -45 83 0
36 -25 62 -42 45 -17 -17 -83 -15 -98 3 -7 8 -20 15 -30 15 -10 0 -23 7 -30
15 -9 10 -32 15 -75 15 -43 0 -66 5 -75 15 -10 11 -36 15 -110 15 -78 0 -99 3
-104 15 -4 11 -21 15 -60 15 -39 0 -55 4 -60 15 -4 12 -24 15 -91 15 -67 0
-87 3 -91 15 -4 8 -17 15 -30 15 -14 0 -27 7 -30 15 -5 11 -23 15 -75 15 -53
0 -71 4 -75 15 -4 10 -20 15 -45 15 -26 0 -42 5 -45 15 -8 19 -38 19 -54 0 -7
-8 -17 -15 -22 -15 -5 0 -46 -34 -91 -75 -44 -41 -88 -75 -97 -75 -10 0 -23
-7 -30 -15 -10 -12 -37 -15 -119 -15 -99 0 -109 -2 -129 -23 -12 -13 -22 -30
-22 -39 0 -9 -7 -21 -15 -28 -9 -8 -15 -30 -15 -60 0 -30 -6 -52 -15 -60 -8
-7 -15 -20 -15 -30 0 -10 -7 -23 -15 -30 -8 -7 -15 -20 -15 -30 0 -10 -7 -23
-15 -30 -8 -7 -15 -27 -15 -45 0 -18 -7 -38 -15 -45 -8 -7 -15 -27 -15 -45 0
-18 -7 -38 -15 -45 -8 -7 -15 -20 -15 -30 0 -10 -7 -23 -15 -30 -9 -8 -15 -30
-15 -60 0 -30 -6 -52 -15 -60 -9 -8 -15 -30 -15 -60 0 -29 -6 -52 -15 -60 -8
-6 -15 -33 -17 -61 l-3 -50 -48 111 c-93 216 -125 399 -93 535 56 236 297 473
781 770 88 54 165 103 170 108 18 17 -36 -14 -185 -106 -476 -295 -720 -538
-776 -772 -31 -135 1 -323 92 -532 38 -86 44 -110 35 -125 -6 -10 -11 -58 -11
-107 0 -66 -4 -92 -15 -101 -12 -10 -15 -48 -15 -221 0 -171 3 -210 15 -223
10 -10 15 -35 15 -75 0 -40 5 -65 15 -75 8 -8 15 -28 15 -45 0 -16 6 -36 13
-43 8 -7 17 -26 21 -41 3 -15 11 -27 16 -27 6 0 10 -8 10 -19 0 -10 10 -30 23
-44 12 -14 33 -42 47 -61 26 -37 62 -83 81 -101 5 -5 18 -18 27 -28 9 -9 20
-17 25 -17 8 0 46 -29 100 -75 9 -8 26 -15 37 -15 11 0 23 -7 26 -15 4 -8 17
-15 30 -15 14 0 27 -7 30 -15 4 -10 20 -15 45 -15 26 0 42 -5 45 -15 5 -11 21
-15 60 -15 39 0 56 -4 60 -15 9 -22 525 -22 544 0 23 27 77 18 138 -24 268
-181 574 -351 882 -489 l185 -83 200 -35 c339 -59 579 -78 718 -55 26 4 47 4
47 -1 0 -4 35 -8 77 -8 l77 0 -22 20 c-12 12 -22 23 -22 25 0 2 27 18 59 35
191 102 334 337 460 755 34 115 136 537 177 734 21 100 34 142 52 163 l24 28
202 0 202 0 33 -34 c30 -31 37 -50 81 -243 134 -585 252 -935 386 -1150 61
-98 173 -212 241 -245 l51 -25 -31 -32 -32 -31 78 0 c63 0 77 3 77 16 0 13 8
14 58 7 81 -11 322 -8 428 7 49 6 195 32 324 56 l235 45 175 80 c225 103 479
243 701 386 130 83 185 113 208 113 19 0 34 -6 37 -15 9 -22 525 -22 544 0 8
9 30 15 60 15 30 0 52 6 60 15 7 8 27 15 45 15 18 0 38 7 45 15 7 8 20 15 30
15 10 0 23 7 30 15 7 8 19 15 28 15 8 0 39 20 68 45 28 25 56 45 62 45 12 0
112 100 112 112 0 6 20 34 45 62 25 29 45 60 45 68 0 9 7 21 15 28 8 7 15 20
15 30 0 10 7 23 15 30 8 7 15 27 15 45 0 18 7 38 15 45 10 9 15 32 15 75 0 43
5 66 15 75 22 18 22 437 1 454 -11 8 -15 39 -17 126 -2 113 -1 116 34 191 52
110 105 262 122 353 43 223 -13 395 -189 586 -151 164 -308 285 -614 475 -107
66 -161 106 -162 118 0 9 4 17 8 17 5 0 19 21 31 46 l23 46 -21 44 c-12 24
-26 46 -32 49 -5 4 -9 14 -9 24 0 10 -7 24 -15 31 -8 7 -15 20 -15 29 -1 9
-14 32 -30 51 -17 19 -30 39 -30 45 -1 5 -14 26 -30 45 -17 19 -30 39 -30 45
0 6 -13 24 -30 40 -16 16 -30 35 -30 43 0 17 -27 68 -58 106 -13 16 -22 30
-20 31 4 4 242 -13 285 -20 31 -5 92 -65 93 -90 1 -5 14 -26 30 -45 17 -19 30
-39 30 -46 0 -6 7 -17 15 -24 8 -7 15 -20 15 -29 1 -9 14 -32 30 -51 17 -19
30 -39 30 -45 1 -5 14 -26 30 -45 17 -19 30 -39 30 -45 0 -7 10 -21 23 -33 21
-20 34 -22 129 -22 82 0 108 -3 118 -15 7 -8 24 -15 39 -15 15 0 42 -13 61
-30 19 -16 39 -29 44 -30 4 0 24 -13 43 -30 38 -33 92 -41 113 -15 7 8 20 15
30 15 10 0 23 7 30 15 7 8 27 15 45 15 18 0 38 7 45 15 7 8 20 15 30 15 10 0
23 7 30 15 7 8 20 15 30 15 10 0 23 7 30 15 7 8 20 15 30 15 10 0 23 7 30 15
7 8 20 15 30 15 10 0 23 7 30 15 7 8 20 15 30 15 10 0 23 7 30 15 7 8 20 15
30 15 10 0 23 7 30 15 7 8 20 15 30 15 10 0 23 7 30 15 7 8 20 15 30 15 10 0
45 27 78 60 44 45 66 60 87 60 19 0 45 15 81 45 28 25 56 45 62 45 5 0 16 8
25 18 13 14 17 38 17 92 l0 74 -48 -47 c-26 -26 -54 -47 -63 -47 -8 0 -35 -20
-59 -45 -33 -34 -52 -45 -75 -45 -24 0 -43 -13 -90 -60 -33 -33 -67 -60 -76
-60 -9 0 -22 -7 -29 -15 -7 -8 -20 -15 -30 -15 -10 0 -23 -7 -30 -15 -7 -8
-20 -15 -30 -15 -10 0 -23 -7 -30 -15 -7 -8 -20 -15 -30 -15 -10 0 -23 -7 -30
-15 -7 -8 -20 -15 -30 -15 -10 0 -23 -7 -30 -15 -7 -8 -20 -15 -30 -15 -10 0
-23 -7 -30 -15 -7 -8 -20 -15 -30 -15 -10 0 -23 -7 -30 -15 -7 -8 -20 -15 -30
-15 -10 0 -23 -7 -30 -15 -7 -8 -27 -15 -45 -15 -18 0 -38 -7 -45 -15 -16 -19
-49 -19 -56 0 -4 8 -16 15 -28 15 -12 0 -33 13 -46 30 -19 22 -33 29 -62 30
-22 0 -40 6 -45 15 -7 11 -35 15 -123 17 -108 3 -115 4 -118 24 -2 12 -16 34
-33 49 -16 16 -29 36 -29 45 0 9 -13 29 -30 45 -16 16 -30 36 -30 46 0 9 -7
22 -15 29 -8 7 -15 20 -15 29 0 10 -13 30 -30 46 -47 45 -41 58 28 51 101 -11
384 -26 497 -26 202 0 465 39 595 87 270 101 411 371 481 924 12 97 5 261 -22
488 -10 89 -6 108 17 77 13 -18 14 -12 14 53 0 75 -11 111 -34 111 -24 0 -36
27 -50 111 -25 152 -105 470 -167 664 -158 493 -426 1050 -687 1422 -66 93
-72 107 -72 151 0 32 5 54 15 62 22 19 22 445 0 454 -11 4 -15 22 -15 75 0 52
-4 70 -15 75 -10 3 -15 19 -15 45 0 25 -5 41 -15 45 -8 3 -15 16 -15 30 0 13
-7 26 -15 30 -8 3 -15 15 -15 26 0 11 -7 28 -15 38 -46 53 -75 91 -75 99 0 5
-8 16 -17 25 -10 9 -22 22 -28 27 -18 19 -64 55 -101 81 -19 14 -47 35 -61 48
-14 12 -34 22 -44 22 -11 0 -19 4 -19 10 0 5 -12 13 -27 16 -15 4 -34 13 -41
21 -7 7 -27 13 -43 13 -17 0 -37 7 -45 15 -9 9 -34 15 -60 15 -27 0 -52 6 -60
15 -13 13 -57 15 -268 15 -213 0 -256 -2 -266 -15 -9 -11 -33 -15 -90 -15 -57
0 -81 -4 -90 -15 -8 -9 -30 -15 -60 -15 -30 0 -52 -6 -60 -15 -8 -9 -30 -15
-60 -15 -30 0 -52 -6 -60 -15 -7 -8 -27 -15 -45 -15 -18 0 -38 -7 -45 -15 -7
-8 -27 -15 -45 -15 -18 0 -38 -7 -45 -15 -7 -8 -26 -15 -42 -15 -16 0 -41 -9
-55 -20 -16 -12 -34 -18 -45 -14 -10 3 -25 1 -32 -5 -48 -40 -169 -79 -150
-50 3 5 12 64 19 132 14 125 8 250 -16 327 -35 111 -134 234 -269 335 -160
119 -234 156 -440 218 -187 57 -504 135 -637 157 -60 10 -77 17 -97 41 -13 15
-26 33 -28 39 -2 7 -31 10 -78 8 l-75 -3 25 -24 25 -23 -50 6 c-430 53 -938
56 -1332 7 l-143 -17 27 28 27 28 -77 0 c-74 0 -77 -1 -91 -28z m1430 -12
c212 -21 234 -25 234 -44 0 -7 20 -32 45 -56 25 -24 45 -51 45 -60 0 -9 14
-29 30 -45 17 -16 30 -36 30 -45 0 -9 14 -29 30 -45 17 -16 30 -36 30 -46 0
-9 7 -22 15 -29 8 -7 15 -20 15 -30 0 -10 7 -23 15 -30 8 -7 15 -20 15 -30 0
-10 7 -23 15 -30 8 -7 15 -19 15 -28 0 -8 16 -32 36 -54 26 -29 35 -47 31 -64
-3 -16 4 -31 20 -46 33 -31 73 -113 73 -149 0 -16 4 -29 10 -29 5 0 13 -12 16
-27 4 -15 13 -34 21 -41 20 -20 16 -38 -15 -69 -16 -15 -32 -40 -35 -56 -4
-15 -12 -27 -17 -27 -6 0 -10 -9 -10 -19 0 -11 -6 -26 -13 -33 -8 -7 -17 -26
-21 -41 -3 -15 -11 -27 -16 -27 -6 0 -10 -9 -10 -19 0 -11 -7 -27 -16 -36 -13
-13 -16 -33 -15 -89 2 -63 -1 -75 -22 -97 -13 -14 -35 -29 -50 -33 -15 -3 -27
-11 -27 -16 0 -6 -16 -10 -35 -10 -28 0 -44 -9 -81 -45 -40 -40 -50 -45 -90
-45 -43 0 -48 -4 -140 -95 -53 -52 -103 -95 -111 -95 -8 0 -28 -13 -45 -30
-16 -16 -36 -30 -45 -30 -8 0 -28 -13 -45 -30 -16 -16 -38 -30 -49 -30 -10 0
-19 -4 -19 -10 0 -5 -12 -13 -27 -17 -16 -3 -54 -33 -86 -65 l-59 -58 -197 0
-197 0 -59 60 c-33 33 -67 60 -76 60 -9 0 -22 7 -29 15 -7 8 -18 15 -26 15 -7
0 -29 14 -47 30 -19 17 -40 30 -45 30 -6 0 -27 14 -45 30 -19 17 -40 30 -47
30 -7 0 -56 43 -109 95 -94 91 -99 95 -142 95 -40 0 -50 5 -89 45 -34 35 -52
45 -76 45 -17 0 -37 7 -44 15 -7 8 -19 15 -28 15 -9 0 -26 10 -39 22 -20 19
-23 31 -23 99 0 56 -4 80 -15 89 -8 7 -15 20 -15 30 0 10 -7 23 -15 30 -8 7
-15 20 -15 30 0 10 -7 23 -15 30 -8 7 -15 20 -15 30 0 10 -7 23 -15 30 -8 7
-15 20 -15 29 0 10 -13 30 -30 46 -33 31 -39 65 -15 85 8 7 15 20 15 30 0 10
7 23 15 30 8 7 15 27 15 45 0 18 7 38 15 45 8 7 15 20 15 29 0 10 14 30 30 46
21 20 30 38 30 60 0 22 9 40 30 60 17 16 30 36 30 46 0 9 7 22 15 29 8 7 15
20 15 30 0 10 7 23 15 30 8 7 15 20 15 30 0 10 7 23 15 30 8 7 15 20 15 29 0
10 14 30 30 46 17 16 30 36 30 45 0 9 14 29 30 45 17 16 30 36 30 45 0 9 20
36 45 60 25 24 45 52 45 61 0 19 10 22 200 44 326 38 775 40 1146 5z m-1476
-57 c-1 -5 -14 -24 -30 -43 -17 -19 -30 -39 -30 -45 -1 -5 -14 -26 -30 -45
-17 -19 -30 -39 -30 -46 0 -6 -7 -17 -15 -24 -8 -7 -15 -20 -15 -30 0 -10 -7
-23 -15 -30 -8 -7 -15 -20 -15 -29 -1 -9 -14 -32 -30 -51 -17 -19 -30 -46 -30
-60 0 -16 -12 -37 -30 -55 -16 -16 -30 -35 -30 -42 0 -16 -39 -91 -51 -99 -5
-3 -9 -12 -9 -21 0 -9 -7 -24 -16 -34 -8 -9 -17 -33 -19 -53 -1 -19 -10 -43
-19 -51 -9 -9 -16 -25 -16 -36 0 -10 -4 -19 -10 -19 -5 0 -13 -12 -16 -27 -4
-15 -13 -34 -21 -41 -22 -22 -15 -48 22 -88 19 -20 35 -42 35 -49 0 -6 14 -27
30 -45 17 -18 30 -40 30 -48 0 -7 7 -20 15 -28 8 -9 15 -24 15 -35 0 -10 4
-19 10 -19 5 0 13 -12 16 -27 4 -15 13 -34 21 -41 17 -18 17 -37 -2 -56 -21
-21 -20 -100 2 -126 10 -11 27 -20 39 -20 12 0 24 -7 28 -15 3 -8 16 -15 30
-15 13 0 26 -7 30 -15 3 -8 14 -15 25 -15 27 0 81 -30 110 -62 21 -23 34 -28
74 -28 39 0 52 -5 72 -26 14 -15 25 -32 25 -39 0 -17 76 -85 95 -85 9 0 18 -7
21 -15 4 -8 15 -15 26 -15 11 0 38 -18 60 -40 22 -21 49 -42 61 -46 12 -4 35
-20 51 -35 20 -19 40 -29 61 -29 32 0 66 -29 75 -65 3 -11 16 -21 29 -23 12
-2 25 -10 28 -18 3 -8 16 -14 29 -14 14 0 27 -7 30 -15 4 -8 14 -15 24 -15 10
0 23 7 30 15 10 12 41 15 157 15 118 0 145 -3 149 -15 4 -8 14 -15 24 -15 10
0 23 7 30 15 7 8 20 15 30 15 10 0 23 7 30 15 7 8 18 15 26 15 7 0 19 10 25
23 21 40 52 67 79 67 14 0 41 13 60 30 19 16 40 29 46 30 7 0 34 20 62 45 27
25 57 45 65 45 8 0 20 7 27 15 7 8 18 15 25 15 12 0 65 56 113 119 20 27 30
31 71 31 39 0 52 5 76 30 16 17 34 30 41 30 6 0 17 7 24 15 7 8 23 15 35 15
12 0 28 7 35 15 7 8 20 15 30 15 10 0 23 7 30 15 7 8 19 15 28 15 9 0 26 10
39 22 27 26 32 98 8 118 -8 7 -15 23 -15 35 0 12 7 28 15 35 8 7 15 20 15 30
0 10 7 23 15 30 8 7 15 20 15 30 0 10 7 23 15 30 8 7 15 20 15 29 1 9 14 32
30 51 17 19 30 39 30 45 0 6 14 24 30 40 33 32 40 74 15 95 -8 7 -15 20 -15
30 0 10 -7 23 -15 30 -8 7 -15 20 -15 30 0 10 -7 23 -15 30 -8 7 -15 29 -15
50 0 24 -5 40 -15 44 -8 3 -15 17 -15 31 0 14 -4 25 -9 25 -11 0 -51 79 -51
101 -1 8 -14 25 -30 39 -19 15 -30 33 -30 50 0 26 -24 69 -47 83 -7 4 -13 19
-13 31 0 13 -7 26 -15 30 -8 3 -15 17 -15 31 0 14 -4 25 -9 25 -5 0 -19 20
-31 45 -12 25 -25 45 -30 45 -5 0 -18 20 -30 44 -11 24 -27 47 -35 50 -8 3
-15 12 -15 21 0 13 7 15 38 9 347 -59 807 -191 937 -268 232 -138 377 -287
424 -436 31 -100 31 -283 0 -442 -11 -55 -13 -58 -41 -58 -19 0 -45 -12 -69
-31 -38 -30 -39 -32 -39 -99 0 -48 -4 -71 -15 -80 -9 -8 -15 -30 -15 -58 0
-39 -6 -52 -45 -98 -25 -28 -45 -56 -45 -61 -1 -4 -14 -24 -30 -43 -29 -33
-30 -38 -30 -136 0 -81 3 -103 15 -108 10 -4 15 -20 15 -51 0 -35 -19 -89 -80
-231 -45 -103 -79 -188 -77 -190 2 -2 37 73 78 167 41 95 79 171 84 170 6 0
11 -30 13 -65 2 -41 8 -69 17 -76 8 -7 15 -27 15 -45 0 -18 7 -38 15 -45 11
-9 15 -33 15 -90 0 -57 4 -81 15 -90 10 -9 15 -32 15 -75 0 -44 5 -66 15 -75
12 -10 15 -30 13 -89 l-3 -75 -63 -33 c-81 -42 -184 -47 -152 -8 7 9 6 16 -5
25 -11 9 -15 33 -15 90 0 57 -4 81 -15 90 -9 8 -15 30 -15 60 0 28 -6 52 -14
59 -7 6 -16 38 -19 72 -3 34 -12 68 -21 78 -10 11 -16 36 -16 63 0 28 -6 50
-15 58 -9 8 -15 30 -15 60 0 30 -6 52 -15 60 -9 8 -15 30 -15 60 0 30 -6 52
-15 60 -10 9 -15 31 -15 73 0 72 -17 97 -65 97 -18 0 -38 7 -45 15 -7 8 -27
15 -45 15 -18 0 -38 7 -45 15 -7 8 -19 15 -27 15 -21 0 -73 30 -109 63 l-31
28 -34 -21 c-19 -11 -46 -26 -61 -32 -16 -7 -28 -18 -28 -24 0 -25 -32 -44
-72 -44 -31 0 -49 -7 -75 -30 -18 -16 -40 -30 -47 -30 -7 0 -21 -10 -32 -21
-10 -12 -46 -34 -79 -50 -33 -16 -73 -40 -89 -54 -16 -14 -34 -25 -41 -25 -6
0 -25 -13 -41 -30 -16 -16 -35 -30 -41 -30 -7 0 -21 -8 -32 -17 -59 -56 -80
-73 -91 -73 -11 0 -55 -36 -88 -72 -9 -10 -26 -18 -38 -18 -12 0 -24 -7 -28
-15 -3 -8 -13 -15 -23 -15 -10 0 -35 -16 -55 -35 l-38 -34 0 -102 c0 -84 -4
-111 -21 -146 -11 -23 -25 -45 -30 -49 -5 -3 -9 -12 -9 -21 0 -21 -41 -63 -63
-63 -10 0 -31 -15 -48 -32 -30 -34 -36 -48 -19 -48 16 0 12 -86 -5 -100 -13
-11 -15 -66 -15 -387 l0 -375 -22 6 c-13 3 -71 6 -130 6 l-108 0 0 374 c0 320
-2 375 -15 386 -20 16 -19 74 0 90 14 12 12 17 -17 47 -17 18 -39 33 -48 33
-21 0 -70 51 -70 72 0 9 -4 19 -9 22 -5 3 -18 24 -30 46 -17 34 -21 58 -21
145 l0 104 -37 30 c-21 17 -43 31 -49 31 -6 0 -17 7 -24 15 -7 8 -19 15 -28
15 -8 0 -39 20 -68 45 -28 25 -55 45 -60 45 -4 0 -31 20 -60 45 -28 25 -56 45
-61 45 -4 1 -24 14 -43 30 -19 17 -39 30 -45 30 -5 1 -26 14 -45 30 -19 17
-39 30 -46 30 -6 0 -17 7 -24 15 -7 8 -20 15 -29 15 -9 1 -32 14 -51 30 -19
17 -39 30 -45 30 -5 1 -26 14 -45 30 -24 22 -45 30 -71 30 -52 0 -69 9 -69 34
0 14 -10 26 -27 33 -16 7 -35 16 -43 21 -53 31 -58 32 -83 8 -26 -24 -101 -66
-118 -66 -6 0 -17 -7 -25 -15 -9 -8 -29 -15 -45 -15 -17 0 -37 -7 -45 -15 -9
-8 -29 -15 -46 -15 -48 0 -68 -31 -68 -105 0 -43 -5 -66 -15 -75 -9 -8 -15
-30 -15 -60 0 -30 -6 -52 -15 -60 -9 -8 -15 -30 -15 -60 0 -30 -6 -52 -15 -60
-9 -8 -15 -30 -15 -60 0 -30 -6 -52 -15 -60 -10 -9 -15 -32 -15 -75 0 -41 -5
-67 -14 -74 -11 -9 -29 22 -95 165 -71 156 -81 184 -81 234 0 39 5 62 15 70 9
8 15 30 15 60 0 30 6 52 15 60 11 9 15 34 15 96 0 93 -7 119 -44 159 -14 15
-26 33 -26 39 0 6 -18 30 -40 54 -34 36 -40 49 -40 87 0 25 -6 50 -15 59 -10
10 -15 35 -15 80 0 56 -4 69 -22 86 -13 12 -30 27 -39 35 -9 8 -32 15 -51 15
-23 0 -38 6 -42 15 -3 10 -19 15 -45 15 -26 0 -41 5 -45 15 -18 47 -29 239
-19 320 24 196 156 365 403 518 134 82 588 224 950 296 169 34 160 33 160 24z
m-2396 -998 c10 -11 36 -15 90 -15 53 0 79 -4 90 -15 8 -9 33 -15 60 -15 26 0
51 -6 60 -15 8 -9 33 -15 60 -15 27 0 51 -6 60 -15 8 -9 32 -17 52 -19 19 -1
39 -8 43 -15 4 -6 24 -13 43 -14 20 -2 44 -11 53 -21 11 -11 26 -15 40 -12 14
4 32 -2 49 -15 15 -12 33 -18 44 -15 11 4 29 -2 45 -14 14 -11 32 -20 40 -20
8 0 20 -7 27 -15 7 -8 23 -15 35 -15 18 0 25 -7 30 -32 19 -94 137 -421 221
-611 28 -64 34 -90 34 -146 0 -49 -4 -72 -15 -81 -8 -7 -15 -27 -15 -45 0 -18
-7 -38 -15 -45 -11 -9 -15 -34 -15 -95 0 -64 -3 -84 -15 -89 -11 -4 -15 -22
-15 -75 0 -52 -4 -70 -15 -75 -12 -4 -15 -24 -15 -90 0 -59 -4 -86 -12 -89 -7
-2 -50 30 -94 72 -45 42 -162 151 -261 242 -531 495 -895 715 -1153 696 -122
-9 -237 -57 -374 -155 -88 -64 -232 -192 -258 -231 l-18 -26 0 28 c0 16 -7 35
-15 43 -22 22 -22 291 0 320 8 11 14 42 15 75 0 33 6 63 15 75 8 10 15 29 15
41 0 35 70 165 117 215 24 26 43 53 43 60 0 17 61 78 77 78 8 0 35 19 61 43
50 47 180 117 215 117 12 0 31 7 41 15 11 8 39 15 62 15 25 0 47 6 54 15 10
12 46 15 206 15 158 0 195 -3 208 -15z m7050 0 c8 -9 33 -15 60 -15 26 0 51
-6 60 -15 8 -8 28 -15 45 -15 16 0 36 -6 43 -13 7 -8 26 -17 41 -21 15 -3 27
-11 27 -16 0 -6 8 -10 19 -10 10 0 42 -22 70 -50 28 -27 58 -50 66 -50 20 0
85 -67 85 -87 0 -9 20 -36 45 -60 25 -23 45 -52 45 -63 0 -11 7 -23 15 -26 8
-4 15 -17 15 -30 0 -14 7 -27 15 -30 10 -4 15 -20 15 -45 0 -26 5 -42 15 -45
11 -5 15 -23 15 -75 0 -53 4 -71 15 -75 12 -5 15 -33 15 -164 0 -128 -3 -160
-15 -170 -8 -7 -15 -20 -15 -28 0 -10 -26 9 -67 49 -187 181 -363 295 -509
333 -79 20 -187 20 -272 0 -83 -20 -305 -125 -403 -191 -184 -125 -487 -379
-791 -665 l-128 -120 0 65 c0 45 -4 68 -15 77 -10 9 -15 32 -15 75 0 43 -5 66
-15 75 -11 9 -15 33 -15 90 0 57 -4 81 -15 90 -8 7 -15 27 -15 45 0 18 -7 38
-15 45 -11 9 -15 32 -15 80 0 51 -4 69 -15 74 -29 11 -19 113 20 217 20 51 33
99 31 106 -3 7 0 12 6 10 7 -1 14 7 16 18 2 11 11 28 19 37 11 13 14 29 9 57
-6 42 0 71 15 71 6 0 5 -9 -1 -21 -6 -11 -10 -25 -8 -31 3 -9 21 42 67 192 5
17 17 26 40 31 18 4 38 12 44 18 6 6 22 11 34 11 13 0 52 15 86 33 34 19 68
32 74 30 7 -3 29 5 48 17 19 12 39 19 45 15 6 -4 26 3 45 15 20 12 42 20 50
17 7 -3 25 3 40 15 15 11 34 18 45 15 11 -3 31 3 44 14 16 12 40 19 69 19 27
0 49 6 57 15 8 9 30 15 60 15 30 0 52 6 60 15 9 11 33 15 90 15 57 0 81 4 90
15 10 12 46 15 206 15 158 0 195 -3 208 -15z m-6059 -285 c16 0 39 -10 52 -22
19 -18 23 -32 23 -84 0 -42 5 -65 15 -74 9 -8 15 -30 15 -60 0 -30 6 -52 15
-60 8 -7 15 -20 15 -29 0 -9 20 -37 45 -61 25 -24 45 -52 45 -61 0 -9 7 -22
15 -29 9 -8 15 -29 15 -55 0 -29 -5 -45 -15 -49 -11 -4 -15 -21 -15 -60 0 -92
-21 -80 -73 42 -102 240 -197 507 -213 597 -7 39 -6 40 13 23 11 -10 32 -18
48 -18z m4601 -81 l-24 -74 -1 51 c-1 39 4 56 22 76 12 14 23 25 24 24 1 -1
-8 -36 -21 -77z m-142 -403 c-20 -53 -42 -95 -48 -93 -18 6 -19 73 -2 90 9 9
16 22 16 31 0 15 59 80 66 73 3 -2 -12 -48 -32 -101z m1720 38 c148 -38 322
-153 514 -338 l72 -70 0 -67 c0 -47 -4 -70 -15 -79 -9 -8 -15 -30 -15 -60 0
-30 -6 -52 -15 -60 -9 -8 -15 -30 -15 -60 0 -30 -6 -52 -15 -60 -10 -8 -15
-30 -15 -61 0 -26 -6 -53 -13 -61 -8 -7 -17 -26 -21 -41 -3 -15 -11 -27 -16
-27 -6 0 -10 -15 -10 -34 0 -19 -7 -41 -15 -50 -8 -8 -15 -28 -15 -45 0 -16
-6 -36 -13 -43 -8 -7 -17 -26 -21 -41 -3 -15 -11 -27 -16 -27 -6 0 -10 -9 -10
-19 0 -11 -7 -26 -15 -35 -9 -9 -15 -33 -15 -65 0 -32 -5 -53 -14 -58 -8 -4
-16 -19 -18 -33 -3 -25 -4 -25 -121 -28 -93 -2 -119 -6 -124 -17 -3 -8 -16
-15 -29 -15 -14 0 -27 -7 -30 -15 -4 -8 -15 -15 -27 -15 -11 0 -45 -25 -79
-60 -60 -62 -93 -75 -118 -45 -9 10 -32 15 -75 15 -43 0 -66 5 -75 15 -7 8
-20 15 -30 15 -10 0 -23 7 -30 15 -9 11 -33 15 -90 15 -57 0 -81 4 -90 15 -8
9 -30 15 -60 15 -30 0 -52 6 -60 15 -9 11 -35 15 -105 15 -70 0 -96 4 -105 15
-9 10 -32 15 -75 15 -43 0 -66 5 -75 15 -7 8 -20 15 -30 15 -10 0 -23 7 -30
15 -8 10 -31 15 -66 15 -41 0 -54 4 -54 15 0 31 -46 103 -104 163 -48 49 -67
62 -91 62 -39 0 -55 16 -55 56 0 17 -7 37 -15 44 -8 7 -15 19 -15 28 0 8 -7
23 -15 32 -14 16 -3 28 127 151 310 292 599 535 786 661 98 66 302 165 387
188 88 23 208 25 289 4z m-7468 -24 c168 -42 402 -180 654 -386 235 -191 680
-608 680 -635 0 -10 -6 -22 -14 -26 -8 -4 -16 -26 -18 -48 -3 -38 -5 -40 -41
-43 -31 -3 -48 -15 -102 -68 -36 -36 -65 -74 -65 -84 0 -10 -6 -23 -14 -27 -8
-4 -16 -19 -18 -33 -3 -23 -8 -25 -58 -28 -35 -2 -58 -9 -63 -18 -4 -8 -19
-14 -31 -14 -13 0 -26 -7 -30 -15 -4 -11 -22 -15 -75 -15 -52 0 -70 -4 -75
-15 -4 -12 -26 -15 -105 -15 -79 0 -100 -3 -105 -15 -4 -11 -21 -15 -60 -15
-39 0 -55 -4 -60 -15 -4 -12 -24 -15 -91 -15 -67 0 -87 -3 -91 -15 -4 -8 -17
-15 -30 -15 -14 0 -27 -7 -30 -15 -5 -11 -23 -15 -75 -15 -53 0 -71 -4 -75
-15 -13 -34 -58 -16 -119 45 -33 33 -67 60 -76 60 -9 0 -22 7 -29 15 -7 8 -20
15 -30 15 -10 0 -23 7 -30 15 -9 11 -40 15 -123 17 -106 3 -112 4 -115 25 -2
12 -10 27 -18 33 -8 8 -14 31 -14 60 0 30 -6 52 -15 60 -8 7 -15 20 -15 30 0
10 -7 23 -15 30 -8 7 -15 20 -15 30 0 10 -7 23 -15 30 -8 7 -15 27 -15 45 0
18 -7 38 -15 45 -8 7 -15 27 -15 45 0 18 -7 38 -15 45 -8 7 -15 20 -15 30 0
10 -7 23 -15 30 -9 8 -15 30 -15 60 0 30 -6 52 -15 60 -9 8 -15 30 -15 60 0
30 -6 52 -15 60 -9 8 -15 30 -15 60 0 30 -6 52 -15 60 -24 20 -20 134 6 171
26 38 122 129 196 186 230 181 401 233 599 183z m2309 -70 c20 -21 38 -30 61
-30 17 0 37 -7 44 -15 7 -8 20 -15 29 -15 10 0 30 -13 46 -30 16 -16 36 -30
46 -30 9 0 22 -7 29 -15 7 -8 20 -15 29 -15 10 0 30 -13 46 -30 16 -16 36 -30
45 -30 9 0 29 -13 45 -30 16 -16 36 -30 45 -30 9 0 36 -20 60 -45 24 -25 51
-45 60 -45 9 0 36 -20 60 -45 24 -25 52 -45 61 -45 9 0 22 -7 29 -15 7 -8 20
-15 29 -15 10 0 30 -13 45 -29 15 -16 41 -31 57 -35 l29 -5 0 -129 0 -128 30
-29 c17 -16 30 -36 30 -44 0 -20 60 -81 80 -81 29 0 40 -23 40 -86 0 -43 5
-65 15 -74 13 -11 15 -58 13 -339 l-3 -326 -52 -3 c-29 -2 -56 -9 -63 -17 -9
-10 -33 -15 -75 -15 -43 0 -66 -5 -75 -15 -7 -8 -27 -15 -45 -15 -18 0 -38 -7
-45 -15 -8 -9 -30 -15 -60 -15 -30 0 -52 -6 -60 -15 -7 -8 -27 -15 -45 -15
-18 0 -38 -7 -45 -15 -7 -8 -20 -15 -30 -15 -10 0 -23 -7 -30 -15 -7 -8 -20
-15 -30 -15 -10 0 -23 -7 -30 -15 -7 -8 -20 -15 -29 -15 -10 0 -30 -13 -46
-30 -16 -16 -36 -30 -45 -30 -9 0 -36 -20 -60 -45 -24 -25 -49 -45 -55 -45 -5
0 -135 125 -287 277 l-278 278 0 91 c0 69 -4 95 -15 104 -10 9 -15 32 -15 74
0 56 -3 65 -30 91 -16 16 -30 36 -30 45 0 9 -13 29 -30 45 l-30 29 0 133 c0
110 3 135 15 139 11 4 15 21 15 59 0 34 5 57 15 65 10 9 15 32 15 75 0 43 5
66 15 75 9 8 15 30 15 60 0 30 6 52 15 60 9 8 15 30 15 60 0 30 6 52 15 60 9
8 15 30 15 60 0 29 6 52 15 60 9 7 15 35 17 78 l3 67 37 3 c20 2 42 10 48 18
7 8 27 14 45 14 18 0 38 7 45 15 7 8 27 15 45 15 18 0 38 7 45 15 20 24 54 18
85 -15z m2699 15 c3 -10 19 -15 45 -15 25 0 41 -5 45 -15 3 -10 19 -15 45 -15
25 0 41 -5 45 -15 3 -10 19 -15 45 -15 46 0 51 -9 51 -90 0 -39 5 -62 15 -70
9 -8 15 -30 15 -60 0 -30 6 -52 15 -60 9 -8 15 -30 15 -60 0 -30 6 -52 15 -60
9 -8 15 -30 15 -60 0 -28 6 -52 14 -59 8 -7 16 -42 20 -89 11 -135 18 -171 32
-183 8 -6 14 -29 14 -53 l-1 -41 -16 30 c-9 17 -20 59 -23 95 l-7 65 -1 -55
c-2 -54 23 -130 47 -144 6 -4 11 -39 11 -85 0 -73 -1 -78 -30 -101 -16 -14
-29 -34 -30 -45 0 -12 -13 -32 -30 -45 -27 -23 -29 -30 -30 -93 0 -51 -4 -69
-15 -73 -12 -5 -15 -26 -15 -101 l0 -95 -279 -279 c-154 -153 -284 -279 -288
-279 -5 0 -29 20 -53 45 -24 25 -51 45 -60 45 -9 0 -29 14 -45 30 -16 17 -36
30 -46 30 -9 0 -22 7 -29 15 -7 8 -20 15 -30 15 -10 0 -23 7 -30 15 -7 8 -20
15 -30 15 -10 0 -23 7 -30 15 -7 8 -27 15 -45 15 -18 0 -38 7 -45 15 -8 10
-31 15 -65 15 -38 0 -55 4 -59 15 -3 10 -19 15 -45 15 -25 0 -41 5 -45 15 -4
11 -22 15 -75 15 -52 0 -70 4 -75 15 -4 11 -21 15 -61 15 l-55 0 0 334 c0 284
2 335 15 346 10 9 15 32 15 76 0 56 2 63 23 69 30 9 97 75 97 95 0 9 13 29 30
45 29 28 29 29 32 154 3 120 4 126 24 129 12 2 34 16 49 33 16 16 36 29 46 29
9 0 22 7 29 15 7 8 20 15 29 15 9 0 37 20 61 45 24 25 51 45 60 45 9 0 37 20
62 45 25 25 54 45 64 45 11 1 30 14 44 30 13 17 33 30 45 30 11 1 31 14 45 30
13 17 34 30 46 30 12 0 24 7 28 15 3 8 16 15 28 15 13 1 34 14 48 30 13 17 34
30 46 30 12 0 24 7 28 15 3 10 19 15 43 15 30 1 43 7 63 30 26 33 74 41 84 15z
m-3367 -542 c79 -176 92 -230 62 -264 -15 -18 -19 -38 -19 -101 0 -51 -4 -78
-11 -78 -7 0 -9 -9 -6 -21 12 -46 -121 -65 -200 -29 -38 17 -60 50 -33 50 6 0
10 33 10 79 0 57 4 84 15 95 10 10 15 35 15 75 0 40 5 65 15 75 11 10 15 36
15 90 0 53 4 79 15 90 8 8 15 26 15 39 0 34 10 57 24 57 7 0 44 -71 83 -157z
m6563 -8 c255 -366 524 -924 679 -1410 60 -191 142 -513 165 -656 l13 -76 -24
5 c-14 3 -27 11 -30 18 -3 8 -20 14 -39 14 -36 0 -94 46 -94 75 0 8 -6 15 -14
15 -8 0 -21 6 -28 13 -7 8 -26 17 -41 21 -15 3 -27 11 -27 16 0 6 -6 10 -14
10 -17 0 -414 198 -421 211 -4 5 -16 7 -29 3 -14 -3 -31 2 -48 15 -14 12 -33
21 -41 21 -8 0 -21 7 -28 16 -21 26 -73 10 -132 -39 -28 -24 -70 -51 -92 -61
-22 -9 -52 -24 -67 -32 -18 -9 -58 -14 -126 -14 l-101 0 -30 -37 c-17 -21 -31
-42 -31 -48 -1 -5 -14 -26 -30 -45 -17 -19 -30 -39 -30 -46 0 -6 -7 -17 -15
-24 -8 -7 -15 -20 -15 -29 -1 -9 -14 -32 -30 -51 -17 -19 -30 -39 -30 -45 -1
-5 -14 -26 -30 -45 -17 -19 -30 -39 -30 -45 -1 -5 -14 -26 -30 -45 -17 -19
-30 -39 -30 -46 0 -6 -7 -17 -15 -24 -8 -7 -15 -19 -15 -27 0 -9 -19 -38 -42
-66 -45 -53 -60 -75 -78 -117 -6 -14 -29 -46 -51 -72 -21 -26 -39 -49 -39 -53
0 -3 -13 -23 -30 -43 -16 -21 -32 -51 -36 -69 -3 -17 -19 -44 -35 -59 -32 -30
-37 -65 -14 -84 12 -10 15 -38 15 -130 0 -92 -3 -120 -15 -130 -23 -19 -18
-57 14 -89 15 -16 31 -44 35 -63 3 -19 20 -50 36 -68 17 -19 30 -38 30 -44 0
-6 21 -33 45 -60 25 -27 45 -57 45 -68 0 -10 4 -18 9 -18 5 0 14 -12 19 -28 6
-15 29 -47 51 -71 23 -25 41 -53 41 -63 0 -10 4 -18 8 -18 4 0 15 -16 24 -35
l16 -35 -32 5 c-17 3 -92 9 -166 15 l-135 10 -32 37 c-18 21 -33 43 -33 50 0
19 -106 172 -166 241 l-55 62 -78 0 c-58 0 -82 4 -91 15 -7 8 -25 15 -40 15
-43 0 -170 89 -170 118 0 22 -40 62 -61 62 -9 0 -22 7 -29 15 -11 13 -69 15
-411 15 l-398 0 -3 130 -3 130 395 0 c373 0 398 1 434 20 49 24 76 49 76 68 0
21 40 62 60 62 9 0 30 13 46 30 21 22 38 30 65 30 23 0 39 6 43 15 4 12 24 15
86 15 80 0 80 0 118 39 60 63 82 91 92 117 5 13 14 24 19 24 5 0 19 20 31 45
12 25 26 45 31 45 5 0 9 10 9 23 0 12 8 29 18 38 30 26 72 82 72 95 0 7 6 17
13 21 23 14 47 56 47 82 0 14 14 38 36 59 20 19 43 50 50 69 8 18 18 33 23 33
5 0 19 20 31 45 12 25 26 45 31 45 5 0 9 11 9 25 0 14 7 28 15 31 8 4 15 17
15 30 0 12 6 27 13 31 24 15 47 57 47 86 0 17 -12 45 -30 67 -18 23 -30 50
-30 68 0 16 -7 35 -15 42 -10 9 -15 31 -15 73 0 73 -24 107 -76 107 -17 0 -37
7 -44 15 -7 8 -20 15 -30 15 -10 0 -23 7 -30 15 -9 10 -32 15 -75 15 -43 0
-66 5 -75 15 -8 9 -30 15 -60 15 -30 0 -52 6 -60 15 -7 8 -27 15 -45 15 -18 0
-38 7 -45 15 -9 10 -32 15 -75 15 -43 0 -66 5 -75 15 -9 11 -32 15 -80 15 -51
0 -69 4 -74 15 -4 12 -24 15 -90 15 -65 0 -85 3 -90 15 -4 11 -22 15 -75 15
-46 0 -71 4 -74 13 -3 7 -25 -8 -58 -40 -30 -28 -78 -68 -108 -87 l-53 -36
-139 0 -140 0 -89 -86 c-50 -48 -90 -92 -90 -99 0 -13 -48 -58 -149 -138 -35
-28 -61 -56 -61 -67 0 -18 -13 -30 -105 -100 -26 -19 -68 -60 -94 -92 l-48
-56 -39 42 c-21 23 -69 69 -105 102 l-67 61 34 26 c18 15 36 27 41 27 11 0
123 113 123 124 0 14 101 116 115 116 13 0 245 232 245 245 0 6 20 31 45 55
46 45 56 74 30 84 -11 4 -15 21 -15 59 0 36 5 59 15 67 9 8 15 29 15 56 0 57
30 113 97 181 56 57 66 91 38 119 -8 9 -15 29 -15 45 0 28 1 29 40 23 56 -9
99 1 163 40 52 32 57 33 71 17 9 -10 16 -25 16 -33 0 -9 7 -21 15 -28 18 -15
20 -51 3 -68 -21 -21 10 -42 61 -42 39 0 52 -5 74 -28 15 -15 27 -32 27 -36 0
-4 20 -31 45 -59 33 -38 45 -60 45 -83 0 -33 39 -80 47 -56 7 18 88 16 103 -3
7 -8 20 -15 30 -15 10 0 23 -7 30 -15 9 -11 32 -15 80 -15 51 0 69 -4 74 -15
4 -12 26 -15 105 -15 79 0 100 -3 105 -15 4 -11 21 -15 60 -15 39 0 55 -4 60
-15 4 -12 24 -15 86 -15 59 0 86 -4 96 -15 9 -8 24 -15 34 -15 10 0 20 -7 24
-15 4 -11 22 -15 71 -15 46 0 71 -5 81 -15 9 -8 31 -15 50 -15 19 0 34 -4 34
-9 0 -5 7 -12 16 -15 19 -7 58 20 152 107 41 37 82 67 92 67 10 0 23 7 30 15
10 12 36 15 118 15 95 0 108 2 129 22 13 12 23 29 23 39 0 9 7 22 15 29 9 8
15 30 15 60 0 30 6 52 15 60 8 7 15 20 15 30 0 10 7 23 15 30 8 7 15 20 15 30
0 10 7 23 15 30 8 7 15 27 15 45 0 18 7 38 15 45 8 7 15 27 15 45 0 18 7 38
15 45 8 7 15 20 15 30 0 10 7 23 15 30 9 8 15 30 15 60 0 30 6 52 15 60 9 8
15 30 15 60 0 30 6 52 15 60 9 8 15 30 15 60 0 30 6 52 15 60 9 7 15 29 15 53
0 48 -1 49 80 -68z m-9084 22 c9 -5 14 -26 14 -61 0 -39 4 -55 15 -60 11 -4
15 -21 15 -60 0 -39 4 -55 15 -60 11 -4 15 -21 15 -60 0 -39 4 -55 15 -60 8
-3 15 -16 15 -30 0 -13 7 -26 15 -30 10 -3 15 -19 15 -46 0 -27 5 -43 15 -46
10 -4 15 -20 15 -45 0 -26 5 -42 15 -45 8 -4 15 -17 15 -30 0 -14 7 -27 15
-30 8 -4 15 -17 15 -30 0 -14 7 -27 15 -30 11 -5 15 -21 15 -60 0 -39 4 -56
15 -60 8 -4 15 -16 15 -27 0 -12 12 -32 27 -44 24 -21 36 -23 135 -23 64 0
108 -4 108 -10 0 -5 12 -13 27 -16 14 -4 58 -37 96 -73 38 -36 79 -70 90 -74
12 -5 25 -15 30 -23 10 -18 31 -18 47 1 7 8 27 15 45 15 18 0 38 7 45 15 9 10
32 15 75 15 43 0 66 5 75 15 7 8 20 15 30 15 10 0 23 7 30 15 9 11 33 15 90
15 57 0 81 4 90 15 8 9 30 15 60 15 30 0 52 6 60 15 9 11 35 15 105 15 70 0
96 4 105 15 9 10 32 15 75 15 43 0 66 5 75 15 7 8 20 15 30 15 10 0 23 7 30
15 14 17 95 21 105 5 12 -20 45 14 45 46 0 22 11 46 36 76 20 23 40 45 44 48
4 3 10 15 14 27 12 38 54 63 105 63 54 0 78 23 56 54 -14 19 -11 41 12 67 12
15 18 14 60 -7 59 -30 134 -32 188 -4 22 11 41 20 42 20 11 0 0 -80 -12 -90
-29 -24 -17 -57 43 -117 72 -73 92 -111 92 -174 0 -35 4 -51 15 -55 11 -5 15
-22 15 -64 0 -39 -5 -62 -15 -70 -23 -19 -19 -30 30 -77 25 -23 45 -48 45 -54
0 -16 219 -237 243 -245 23 -7 127 -112 127 -129 0 -14 104 -115 119 -115 5 0
22 -11 37 -25 l27 -25 -101 -101 -101 -101 -28 33 c-39 49 -136 139 -149 139
-19 0 -64 48 -64 68 0 19 -98 112 -118 112 -13 0 -92 78 -92 91 0 15 -106 126
-154 160 -39 29 -41 29 -181 29 -107 0 -144 3 -148 13 -2 7 -22 21 -43 32 -20
11 -62 44 -91 74 -41 41 -57 51 -65 43 -7 -7 -40 -12 -74 -12 -42 0 -65 -5
-74 -15 -9 -11 -33 -15 -90 -15 -57 0 -81 -4 -90 -15 -9 -10 -32 -15 -75 -15
-43 0 -66 -5 -75 -15 -9 -10 -32 -15 -75 -15 -43 0 -66 -5 -75 -15 -7 -8 -27
-15 -45 -15 -18 0 -38 -7 -45 -15 -8 -9 -30 -15 -60 -15 -30 0 -52 -6 -60 -15
-9 -10 -32 -15 -75 -15 -43 0 -66 -5 -75 -15 -7 -8 -20 -15 -30 -15 -10 0 -23
-7 -30 -15 -7 -8 -27 -15 -45 -15 -54 0 -75 -27 -75 -98 0 -41 -5 -66 -15 -76
-8 -8 -15 -28 -15 -44 0 -18 -11 -42 -30 -63 -41 -47 -41 -101 0 -149 16 -19
29 -42 30 -51 0 -9 7 -22 15 -29 8 -7 15 -20 15 -30 0 -10 7 -23 15 -30 8 -7
15 -18 15 -24 0 -7 13 -27 30 -46 16 -19 29 -40 30 -46 0 -7 20 -34 45 -62 27
-30 45 -60 45 -74 0 -13 13 -39 30 -58 16 -19 29 -39 30 -43 0 -5 20 -33 45
-61 25 -29 45 -60 45 -68 0 -9 7 -21 15 -28 8 -7 15 -17 15 -23 0 -5 12 -26
28 -46 15 -19 29 -41 32 -47 3 -7 31 -42 63 -78 l58 -66 78 0 c58 0 82 -4 91
-15 7 -8 27 -15 44 -15 19 -1 44 -12 66 -30 19 -17 39 -30 45 -30 16 0 65 -53
65 -70 0 -20 30 -50 50 -50 10 0 23 -7 30 -15 11 -13 70 -15 418 -15 l405 0
-7 -61 c-3 -34 -6 -93 -6 -130 l0 -69 -399 0 c-345 0 -400 -2 -405 -15 -3 -8
-15 -15 -26 -15 -25 0 -60 -34 -60 -58 0 -20 -31 -49 -80 -74 -19 -10 -38 -25
-43 -33 -5 -9 -23 -15 -46 -15 -25 0 -41 -5 -45 -15 -4 -12 -24 -15 -86 -15
l-80 0 -38 -39 c-78 -82 -92 -100 -92 -113 0 -7 -14 -26 -30 -42 -17 -16 -30
-38 -30 -48 0 -10 -7 -21 -15 -24 -8 -4 -15 -15 -15 -26 0 -18 -14 -36 -73
-99 -9 -11 -17 -25 -17 -31 0 -7 -11 -23 -24 -36 -21 -20 -42 -24 -183 -36
-87 -8 -159 -13 -161 -11 -4 4 22 48 50 86 16 20 28 41 28 46 0 6 7 16 15 23
8 7 15 19 15 28 0 8 20 39 45 68 25 28 45 57 45 62 0 5 7 15 15 22 8 7 15 19
15 28 0 8 20 39 45 68 25 28 45 56 45 61 1 4 14 24 30 43 17 19 30 46 30 60 0
16 12 37 30 55 33 32 42 88 15 99 -12 4 -15 27 -15 119 0 90 3 117 15 127 26
21 18 72 -15 100 -22 17 -30 33 -30 55 0 22 -9 41 -30 61 -16 16 -30 36 -30
44 0 8 -20 35 -45 60 -25 26 -44 55 -45 68 0 12 -4 22 -10 22 -5 0 -16 15 -24
33 -7 17 -30 48 -50 67 -19 19 -36 45 -36 58 0 12 -4 22 -10 22 -5 0 -16 15
-24 34 -8 19 -23 43 -34 54 -11 11 -23 29 -26 40 -4 11 -17 31 -29 44 -12 14
-31 42 -42 63 -11 20 -25 40 -32 42 -7 3 -13 16 -13 29 0 14 -6 27 -14 30 -8
3 -17 16 -20 28 -3 12 -17 34 -30 49 -13 14 -27 35 -30 45 -4 10 -19 33 -35
50 l-28 32 -106 0 c-80 0 -109 4 -121 15 -8 8 -19 15 -25 15 -21 0 -95 45
-135 81 -40 38 -89 55 -120 43 -9 -3 -16 -10 -16 -15 0 -5 -9 -9 -19 -9 -11 0
-27 -7 -36 -16 -8 -9 -30 -18 -48 -19 -28 -3 -78 -24 -127 -54 -8 -5 -22 -12
-30 -15 -8 -3 -22 -10 -30 -15 -8 -5 -22 -12 -30 -15 -8 -3 -22 -10 -30 -15
-8 -5 -22 -12 -30 -15 -8 -3 -22 -10 -30 -15 -8 -5 -22 -12 -30 -15 -8 -3 -22
-10 -30 -15 -8 -5 -22 -12 -30 -15 -8 -3 -22 -10 -30 -15 -8 -5 -22 -12 -30
-15 -8 -3 -23 -10 -32 -16 -10 -5 -26 -15 -35 -20 -10 -6 -28 -14 -40 -20 -13
-5 -23 -16 -23 -23 0 -25 -55 -67 -87 -67 -17 0 -36 -7 -43 -15 -13 -16 -40
-20 -40 -7 0 31 68 336 110 492 97 360 250 757 418 1080 90 175 266 473 342
579 43 61 45 62 48 35 2 -16 10 -33 18 -37z m2049 -1297 c33 -33 67 -60 76
-60 9 0 22 -7 29 -15 10 -12 40 -15 149 -15 l136 0 165 -165 c90 -90 173 -165
184 -167 12 -2 22 -12 24 -23 5 -27 132 -155 155 -155 9 0 20 -7 22 -15 9 -27
15 -40 27 -58 11 -15 5 -25 -50 -79 -34 -33 -62 -69 -62 -78 0 -10 -7 -23 -15
-30 -8 -7 -15 -20 -15 -30 0 -10 -7 -23 -15 -30 -8 -7 -15 -20 -15 -30 0 -10
-7 -23 -15 -30 -8 -7 -15 -27 -15 -45 0 -18 -7 -38 -15 -45 -8 -7 -15 -27 -15
-45 0 -18 -7 -38 -15 -45 -8 -7 -15 -27 -15 -45 0 -18 -7 -38 -15 -45 -8 -7
-15 -27 -15 -45 0 -18 -7 -38 -15 -45 -11 -9 -15 -35 -15 -105 0 -68 -4 -96
-14 -105 -8 -6 -16 -21 -18 -33 l-3 -22 -371 -3 c-321 -2 -373 0 -384 13 -7 8
-20 15 -29 15 -21 0 -41 19 -41 39 0 21 -90 111 -111 111 -9 0 -22 7 -29 15
-7 8 -27 15 -45 15 -18 0 -38 7 -45 15 -9 11 -33 15 -89 15 -72 0 -79 2 -104
28 -15 15 -27 35 -27 43 0 8 -20 35 -45 59 -25 24 -45 51 -45 60 0 9 -13 29
-30 45 -16 16 -30 36 -30 46 0 9 -7 22 -15 29 -8 7 -15 20 -15 29 0 9 -20 37
-45 61 -25 24 -45 52 -45 61 0 9 -7 22 -15 29 -8 7 -15 20 -15 29 0 10 -13 30
-30 46 -16 16 -30 36 -30 45 0 9 -13 29 -30 45 -16 16 -30 36 -30 45 0 9 -13
29 -30 45 -16 16 -30 36 -30 46 0 9 -7 22 -15 29 -8 7 -15 20 -15 30 0 10 -7
23 -15 30 -8 7 -15 23 -15 35 0 12 7 28 15 35 8 7 15 27 15 45 0 18 7 38 15
45 9 7 15 35 17 78 l3 67 37 3 c20 2 42 10 48 18 7 8 20 14 30 14 10 0 23 7
30 15 9 10 32 15 75 15 43 0 66 5 75 15 8 9 30 15 60 15 30 0 52 6 60 15 7 8
27 15 45 15 18 0 38 7 45 15 9 10 32 15 75 15 43 0 66 5 75 15 9 11 32 15 80
15 51 0 69 4 74 15 4 12 24 15 91 15 67 0 87 3 91 15 4 10 20 15 48 15 38 0
47 -6 101 -60z m5045 45 c9 -11 33 -15 90 -15 57 0 81 -4 90 -15 9 -10 32 -15
75 -15 43 0 66 -5 75 -15 9 -10 32 -15 75 -15 43 0 66 -5 75 -15 7 -8 29 -15
50 -15 24 0 40 -5 44 -15 4 -11 21 -15 60 -15 39 0 55 -4 60 -15 4 -11 22 -15
75 -15 52 0 70 -4 75 -15 3 -8 16 -15 30 -15 13 0 26 -7 30 -15 3 -10 19 -15
45 -15 46 0 53 -12 50 -88 -2 -36 2 -55 14 -67 9 -9 17 -32 17 -51 0 -19 4
-34 9 -34 5 0 12 -8 16 -18 7 -24 -65 -169 -100 -202 -14 -13 -25 -31 -25 -40
0 -9 -13 -29 -30 -45 -16 -16 -30 -36 -30 -45 0 -9 -13 -29 -30 -45 -16 -16
-30 -36 -30 -46 0 -9 -7 -22 -15 -29 -8 -7 -15 -20 -15 -29 0 -9 -20 -37 -45
-61 -25 -24 -45 -52 -45 -61 0 -9 -7 -22 -15 -29 -8 -7 -15 -20 -15 -29 0 -10
-13 -30 -30 -46 -16 -16 -30 -36 -30 -45 0 -9 -20 -36 -45 -60 -25 -24 -45
-51 -45 -59 0 -8 -10 -25 -22 -38 -19 -20 -31 -23 -99 -23 -56 0 -80 -4 -89
-15 -7 -8 -29 -15 -50 -15 -24 0 -40 -5 -44 -15 -3 -8 -15 -15 -26 -15 -25 0
-118 -95 -122 -124 -2 -14 -12 -22 -28 -24 -14 -2 -29 -10 -33 -18 -7 -12 -71
-14 -382 -14 l-373 0 -21 67 c-13 40 -21 93 -21 133 0 48 -4 71 -15 80 -8 7
-15 27 -15 45 0 18 -7 38 -15 45 -8 7 -15 27 -15 45 0 18 -7 38 -15 45 -8 7
-15 27 -15 45 0 18 -7 38 -15 45 -8 7 -15 27 -15 45 0 18 -7 38 -15 45 -8 7
-15 20 -15 30 0 10 -7 23 -15 30 -8 7 -15 20 -15 30 0 10 -7 23 -15 30 -8 7
-15 20 -15 28 0 9 -28 45 -62 80 -56 56 -61 65 -46 75 9 7 18 24 20 37 2 17
10 26 26 28 29 4 150 125 154 154 2 15 11 24 26 26 13 2 89 70 186 168 l164
164 141 0 c117 0 143 3 147 15 4 8 16 15 28 15 13 0 42 23 76 59 49 53 59 59
96 60 26 1 46 -5 54 -14z m-7110 -570 c7 -8 20 -15 29 -15 10 0 30 -13 46 -30
20 -21 38 -30 61 -30 17 0 37 -7 44 -15 9 -11 40 -15 123 -17 105 -3 112 -4
115 -24 2 -12 16 -34 33 -49 16 -16 29 -36 29 -45 0 -9 14 -29 30 -45 17 -16
30 -36 30 -46 0 -9 7 -22 15 -29 8 -7 15 -20 15 -29 0 -10 14 -30 30 -46 17
-16 30 -36 30 -45 0 -9 14 -29 30 -45 17 -16 30 -36 30 -45 0 -9 12 -27 26
-41 14 -13 39 -51 55 -84 16 -34 42 -74 60 -90 17 -17 44 -57 60 -90 15 -33
46 -78 69 -100 22 -21 40 -47 40 -56 0 -9 7 -22 15 -29 8 -7 15 -20 15 -30 0
-10 7 -23 15 -30 21 -17 22 -341 2 -362 -8 -7 -17 -26 -21 -41 -3 -15 -11 -27
-16 -27 -6 0 -10 -9 -10 -19 0 -11 -19 -39 -43 -63 -24 -24 -47 -55 -50 -70
-4 -16 -12 -28 -17 -28 -6 0 -10 -9 -10 -19 0 -11 -20 -40 -45 -64 -25 -25
-45 -52 -45 -60 0 -8 -9 -24 -20 -37 -11 -13 -20 -29 -20 -36 0 -7 -13 -27
-30 -44 -16 -17 -30 -37 -30 -45 0 -8 -13 -28 -30 -45 -16 -17 -30 -37 -30
-46 0 -11 -39 -58 -54 -64 -1 -1 -131 -5 -291 -10 -323 -9 -457 -2 -631 35
-342 72 -493 232 -590 625 -61 243 -69 325 -56 554 12 223 40 474 55 494 5 6
17 12 26 12 9 0 37 20 61 45 33 34 52 45 75 45 24 0 43 13 90 60 33 33 67 60
76 60 9 0 22 7 29 15 7 8 20 15 30 15 10 0 23 7 30 15 7 8 20 15 30 15 10 0
23 7 30 15 7 8 20 15 30 15 10 0 23 7 30 15 7 8 20 15 30 15 10 0 23 7 30 15
7 8 20 15 30 15 10 0 23 7 30 15 7 8 20 15 30 15 10 0 23 7 30 15 7 8 20 15
30 15 10 0 23 7 30 15 7 8 27 15 45 15 18 0 38 7 45 15 7 8 23 15 35 15 12 0
28 -7 35 -15z m9096 0 c4 -10 20 -15 45 -15 26 0 42 -5 45 -15 4 -8 17 -15 30
-15 14 0 27 -7 30 -15 4 -8 17 -15 30 -15 14 0 27 -7 30 -15 4 -8 17 -15 30
-15 14 0 27 -7 30 -15 4 -8 17 -15 30 -15 14 0 27 -7 30 -15 4 -8 17 -15 30
-15 14 0 27 -7 30 -15 4 -8 17 -15 30 -15 14 0 27 -7 30 -15 4 -8 16 -15 29
-15 12 0 28 -7 35 -15 7 -8 20 -15 29 -15 9 0 43 -27 76 -60 47 -47 66 -60 90
-60 23 0 42 -11 75 -45 24 -25 52 -45 61 -45 41 0 49 -39 75 -342 19 -221 15
-281 -27 -513 -76 -411 -206 -620 -439 -708 -79 -29 -261 -65 -400 -78 -141
-13 -403 -8 -640 12 -114 10 -128 13 -152 37 -16 14 -28 33 -28 42 0 9 -13 29
-30 45 -16 16 -30 36 -30 46 0 9 -7 22 -15 29 -8 7 -15 20 -15 29 0 9 -20 37
-45 61 -25 24 -45 52 -45 61 0 9 -7 22 -15 29 -8 7 -15 20 -15 29 0 9 -20 37
-45 61 -25 24 -45 52 -45 61 0 9 -7 22 -15 29 -8 7 -15 20 -15 30 0 10 -7 23
-15 30 -12 10 -15 44 -15 190 0 149 2 179 15 184 8 3 15 16 15 30 0 13 7 26
15 30 8 3 15 15 15 26 0 11 20 40 45 63 25 24 45 53 45 64 0 12 7 23 15 27 8
3 15 15 15 26 0 11 20 40 45 63 25 24 45 53 45 64 0 12 7 23 15 27 8 3 15 16
15 29 0 15 11 33 30 47 17 13 30 32 30 44 0 12 13 33 30 46 16 14 29 34 30 45
0 12 13 32 30 45 16 14 29 35 30 48 0 12 7 25 15 28 8 4 15 16 15 28 0 12 13
33 30 46 16 14 29 34 30 45 0 11 13 32 29 46 16 14 31 36 33 50 3 24 5 24 121
27 93 2 119 6 124 17 3 10 19 15 42 15 29 0 42 7 61 30 14 16 35 29 48 30 12
0 25 7 28 15 4 9 19 15 35 15 17 0 32 -6 35 -15z m-6410 -1567 c7 -62 9 -68
14 -38 4 22 6 4 7 -48 0 -46 5 -93 11 -105 5 -12 27 -76 48 -142 21 -66 44
-127 51 -136 7 -8 13 -29 13 -46 0 -17 7 -36 15 -43 8 -7 15 -20 15 -30 0 -10
7 -23 15 -30 8 -7 15 -20 15 -30 0 -10 7 -23 15 -30 8 -7 15 -20 15 -29 0 -9
27 -43 60 -76 63 -63 69 -75 45 -95 -8 -7 -15 -21 -15 -31 0 -12 -10 -21 -26
-25 -33 -8 -154 -131 -154 -156 0 -11 -10 -20 -26 -24 -15 -4 -95 -76 -189
-170 l-163 -164 -140 0 c-115 0 -141 -3 -146 -15 -3 -8 -14 -15 -26 -15 -11 0
-45 -26 -78 -60 -50 -51 -64 -60 -94 -60 -20 0 -41 7 -48 15 -9 11 -33 15 -90
15 -57 0 -81 4 -90 15 -9 10 -32 15 -75 15 -43 0 -66 5 -75 15 -9 10 -32 15
-75 15 -43 0 -66 5 -75 15 -7 8 -27 15 -45 15 -18 0 -38 7 -45 15 -8 9 -30 15
-60 15 -30 0 -52 6 -60 15 -9 10 -32 15 -75 15 -43 0 -66 5 -75 15 -7 8 -21
15 -31 15 -9 0 -24 7 -33 15 -8 8 -27 15 -43 15 -46 0 -55 12 -51 65 l3 49
168 97 c92 54 196 118 231 143 105 75 151 152 144 243 -9 103 -92 180 -208
190 -65 6 -83 19 -57 38 10 7 17 21 17 32 0 11 7 26 15 33 8 7 15 20 15 29 0
10 14 30 30 46 17 16 30 36 30 45 0 9 20 36 45 60 25 24 45 51 45 59 0 8 10
25 22 38 19 20 31 23 99 23 56 0 80 4 89 15 7 8 27 15 45 15 18 0 38 7 45 15
7 8 20 15 30 15 22 0 109 87 122 123 6 15 17 27 28 27 10 0 23 7 30 15 11 13
67 15 391 15 l378 0 7 -72z m4424 57 c7 -8 23 -15 36 -15 18 0 24 -5 24 -22 0
-26 96 -128 121 -128 9 0 22 -7 29 -15 7 -8 29 -15 50 -15 24 0 40 -5 44 -15
4 -12 24 -15 86 -15 67 0 83 -3 100 -20 11 -11 20 -28 20 -39 0 -10 20 -37 45
-60 25 -23 45 -50 45 -60 0 -11 14 -31 30 -44 17 -14 30 -35 30 -46 0 -11 7
-24 16 -29 11 -6 0 -13 -43 -25 -101 -28 -163 -106 -163 -204 1 -125 70 -188
435 -398 66 -38 122 -70 124 -71 2 -2 -4 -15 -13 -28 -9 -15 -16 -46 -16 -76
0 -69 -12 -90 -54 -90 -19 0 -39 -7 -46 -15 -7 -8 -20 -15 -30 -15 -10 0 -23
-7 -30 -15 -9 -10 -32 -15 -75 -15 -43 0 -66 -5 -75 -15 -8 -9 -30 -15 -60
-15 -30 0 -52 -6 -60 -15 -7 -8 -27 -15 -45 -15 -18 0 -38 -7 -45 -15 -9 -11
-32 -15 -80 -15 -51 0 -69 -4 -74 -15 -4 -11 -22 -15 -75 -15 -52 0 -70 -4
-75 -15 -4 -12 -24 -15 -90 -15 -65 0 -85 -3 -90 -15 -3 -10 -19 -15 -43 -15
-34 0 -46 8 -98 60 -33 33 -67 60 -76 60 -9 0 -22 7 -29 15 -10 12 -40 15
-149 15 l-136 0 -165 165 c-91 91 -172 165 -180 165 -20 0 -40 20 -40 40 0 20
-119 137 -144 142 -10 1 -22 10 -26 18 -4 8 -12 25 -18 37 -17 33 -17 35 43
98 30 31 55 66 55 76 0 11 7 22 15 25 8 4 15 17 15 30 0 14 7 27 15 30 8 4 15
17 15 30 0 14 7 27 15 30 8 4 15 17 15 31 0 14 6 37 14 51 17 35 43 109 68
197 10 39 23 79 28 90 4 11 16 70 25 130 9 61 18 116 20 123 3 9 88 12 378 12
321 0 376 -2 387 -15z m690 -563 c0 -10 20 -38 45 -62 25 -24 45 -52 45 -61 0
-9 7 -22 15 -29 8 -7 15 -20 15 -29 0 -10 14 -30 30 -46 17 -16 30 -36 30 -45
0 -9 14 -29 30 -45 17 -16 30 -36 30 -45 0 -9 14 -29 30 -45 17 -16 30 -36 30
-46 0 -9 7 -22 15 -29 8 -7 15 -20 15 -30 0 -10 7 -23 15 -30 19 -16 19 -46 1
-57 -8 -4 -15 -16 -17 -25 -3 -15 -26 -5 -129 55 -295 173 -357 219 -391 292
-22 47 -24 123 -5 168 19 47 74 96 126 112 61 18 70 18 70 -3z m-6537 -75
c173 -17 251 -177 156 -321 -38 -57 -111 -110 -320 -232 l-162 -93 -18 23
c-11 13 -19 38 -19 54 0 16 -7 35 -15 42 -8 7 -15 23 -15 35 0 13 7 25 15 29
8 3 15 16 15 30 0 13 7 26 15 30 8 3 15 16 15 28 1 13 14 34 30 48 17 13 30
33 30 45 1 11 14 31 30 45 17 13 30 33 30 45 1 11 14 31 30 45 17 13 30 34 30
46 0 12 7 24 15 28 8 3 15 16 15 28 0 13 9 29 20 36 12 7 18 17 14 23 -4 8 -1
8 12 1 11 -5 45 -12 77 -15z m2160 -651 c102 -83 356 -224 380 -210 6 4 9 3 4
-1 -22 -25 294 -118 405 -119 42 -1 79 -3 82 -6 3 -3 -11 -5 -32 -3 -35 2 -28
-1 26 -13 l22 -4 0 -315 c0 -264 -2 -315 -14 -322 -10 -6 -16 -30 -18 -78 -3
-62 -5 -70 -25 -75 -32 -7 -93 -65 -93 -87 0 -10 -13 -30 -30 -45 l-29 -26 -3
-128 c-3 -123 -4 -129 -24 -132 -12 -2 -34 -16 -49 -33 -16 -16 -36 -29 -46
-29 -9 0 -22 -7 -29 -15 -7 -8 -20 -15 -29 -15 -9 0 -37 -20 -61 -45 -24 -25
-51 -45 -60 -45 -9 0 -36 -20 -60 -45 -24 -25 -51 -45 -60 -45 -9 0 -29 -13
-45 -30 -16 -16 -36 -30 -45 -30 -9 0 -29 -13 -45 -30 -16 -16 -36 -30 -46
-30 -9 0 -22 -7 -29 -15 -7 -8 -20 -15 -29 -15 -10 0 -28 -12 -42 -26 -28 -30
-112 -74 -141 -74 -11 0 -36 -13 -55 -30 -38 -34 -55 -37 -77 -15 -8 8 -28 15
-44 15 -16 0 -39 8 -50 19 -13 10 -31 16 -45 14 -13 -3 -32 4 -46 16 -13 11
-28 18 -33 15 -5 -3 -20 -3 -34 0 -23 6 -24 10 -24 77 0 53 -4 71 -15 75 -11
5 -15 21 -15 60 0 39 -4 56 -15 60 -11 5 -15 21 -15 60 0 39 -4 56 -15 60 -11
4 -15 21 -15 59 0 34 -5 57 -15 65 -10 9 -15 32 -15 75 0 43 -5 66 -15 75 -9
8 -15 30 -15 60 0 30 -6 52 -15 60 -12 10 -15 39 -15 144 l1 131 29 25 c17 13
30 33 30 45 1 11 14 31 30 45 28 22 30 29 30 91 0 50 4 68 15 73 12 4 15 25
15 102 l0 96 273 273 c149 151 276 274 280 274 5 1 27 -14 50 -33z m2787 -612
c0 -69 4 -95 15 -104 10 -9 15 -32 15 -74 0 -56 3 -65 30 -91 17 -16 30 -36
30 -45 0 -9 14 -29 30 -45 l30 -29 0 -128 c0 -105 -3 -130 -15 -134 -11 -5
-15 -21 -15 -60 0 -39 -4 -56 -15 -60 -11 -5 -15 -23 -15 -74 0 -48 -4 -71
-15 -80 -9 -8 -15 -30 -15 -60 0 -30 -6 -52 -15 -60 -9 -8 -15 -30 -15 -60 0
-30 -6 -52 -15 -60 -9 -8 -15 -30 -15 -60 0 -30 -6 -52 -15 -60 -10 -9 -15
-32 -15 -76 0 -53 -3 -65 -20 -74 -12 -6 -28 -10 -38 -8 -9 1 -28 -5 -42 -15
-13 -9 -36 -17 -50 -17 -14 0 -34 -7 -44 -15 -11 -8 -30 -15 -42 -15 -12 0
-36 -8 -53 -17 -30 -18 -30 -18 -64 15 -23 22 -43 32 -64 32 -17 0 -36 7 -43
15 -7 8 -18 15 -26 15 -7 0 -28 13 -46 28 -18 16 -55 39 -83 53 -27 13 -65 36
-83 51 -18 16 -38 28 -45 28 -8 0 -26 13 -42 30 -16 17 -37 30 -47 30 -10 0
-36 20 -59 45 -23 25 -50 45 -60 45 -10 0 -37 20 -60 45 -26 28 -50 45 -64 45
-13 0 -25 7 -29 15 -3 8 -16 15 -28 15 -13 1 -34 14 -48 30 -14 17 -34 30 -47
30 -23 0 -23 1 -23 128 l0 128 -30 29 c-16 16 -30 36 -30 44 0 24 -71 91 -97
91 -22 0 -23 4 -23 69 0 49 -4 72 -15 81 -13 11 -15 60 -15 331 l0 319 38 1
37 2 -35 8 c-28 6 -24 7 20 4 30 -3 80 2 110 9 30 8 46 15 35 15 -11 1 -35 -3
-53 -8 -25 -8 -32 -7 -29 2 2 8 30 12 78 12 58 1 98 9 187 39 70 23 110 42
106 48 -5 7 -2 8 5 3 11 -6 235 96 251 114 11 13 70 51 79 51 5 0 11 3 13 8 2
4 23 22 48 40 l44 32 278 -277 278 -278 0 -91z m-2269 360 c12 -15 11 -16 -11
-9 -46 14 -58 24 -29 25 15 0 33 -7 40 -16z m1184 6 c-28 -12 -47 -12 -40 0 3
6 18 10 33 9 24 0 25 -1 7 -9z m-1100 -30 c7 -11 -9 -11 -45 0 -24 8 -24 8 7
9 17 1 35 -3 38 -9z m1010 0 c-28 -12 -47 -12 -40 0 3 6 18 10 33 9 24 0 25
-1 7 -9z m-855 -35 c10 -12 6 -13 -27 -8 -77 12 -92 21 -37 22 34 1 56 -4 64
-14z m-3280 -260 c9 -10 32 -15 75 -15 43 0 66 -5 75 -15 7 -8 20 -15 30 -15
10 0 23 -7 30 -15 9 -11 33 -15 90 -15 57 0 81 -4 90 -15 8 -9 30 -15 60 -15
30 0 52 -6 60 -15 9 -11 35 -15 105 -15 70 0 96 -4 105 -15 9 -10 32 -15 75
-15 43 0 66 -5 75 -15 7 -8 20 -15 30 -15 10 0 23 -7 30 -15 8 -9 30 -15 59
-15 49 0 71 -13 71 -41 0 -9 7 -22 15 -29 8 -7 15 -20 15 -29 0 -28 124 -144
157 -146 15 -1 34 -3 41 -3 7 -1 12 -17 12 -41 0 -22 6 -44 15 -51 8 -7 15
-20 15 -30 0 -10 7 -23 15 -30 11 -9 15 -33 15 -90 0 -57 4 -81 15 -90 10 -9
15 -32 15 -75 0 -43 5 -66 15 -75 11 -9 15 -33 15 -90 0 -57 4 -81 15 -90 8
-7 15 -27 15 -45 0 -18 7 -38 15 -45 10 -9 15 -32 15 -75 0 -43 5 -66 15 -75
9 -8 15 -30 15 -60 0 -30 6 -52 15 -60 20 -17 20 -96 0 -104 -8 -3 -15 -15
-15 -26 0 -11 -20 -40 -45 -63 -25 -24 -45 -53 -45 -64 0 -12 -7 -23 -15 -27
-11 -4 -15 -21 -15 -60 0 -39 -4 -55 -15 -60 -11 -4 -15 -22 -15 -72 0 -81
-23 -114 -81 -114 -23 0 -39 -6 -43 -15 -3 -10 -19 -15 -45 -15 -25 0 -41 -5
-45 -15 -3 -8 -16 -15 -30 -15 -13 0 -26 -7 -30 -15 -3 -9 -19 -15 -41 -15
-20 0 -43 -7 -51 -15 -9 -8 -29 -15 -45 -15 -17 0 -37 -7 -45 -15 -9 -8 -29
-15 -45 -15 -17 0 -37 -7 -45 -15 -9 -8 -30 -15 -48 -15 -19 0 -39 -7 -46 -15
-8 -9 -30 -15 -60 -15 -30 0 -52 -6 -60 -15 -8 -9 -30 -15 -60 -15 -30 0 -52
-6 -60 -15 -9 -10 -31 -15 -73 -15 -59 0 -62 1 -151 68 -152 114 -443 372
-576 508 -69 71 -180 192 -246 269 -98 115 -133 165 -187 267 -37 70 -67 133
-67 141 0 8 7 20 15 27 10 8 15 31 15 65 0 38 4 55 15 59 11 4 15 21 15 60 0
39 4 55 15 60 11 4 15 21 15 60 0 39 4 55 15 60 8 3 15 16 15 30 0 13 7 26 15
30 10 3 15 19 15 45 0 25 5 41 15 45 10 3 15 19 15 45 0 25 5 41 15 45 8 3 15
16 15 30 0 13 7 26 15 30 8 3 15 16 15 30 0 13 7 26 15 30 11 4 15 21 15 60 0
39 4 55 15 60 8 3 15 16 15 30 0 32 14 36 132 36 75 0 103 4 114 15 9 8 24 15
35 15 10 0 19 4 19 10 0 5 12 13 28 17 15 3 53 33 85 65 60 59 85 69 107 43z
m7335 -45 c33 -33 67 -60 76 -60 9 0 22 -7 29 -15 7 -8 20 -15 30 -15 10 0 23
-7 30 -15 10 -12 37 -15 119 -15 109 0 131 -7 131 -41 0 -9 7 -22 15 -29 9 -8
15 -30 15 -60 0 -30 6 -52 15 -60 8 -7 15 -20 15 -30 0 -10 7 -23 15 -30 8 -7
15 -20 15 -30 0 -10 7 -23 15 -30 8 -7 15 -27 15 -45 0 -18 7 -38 15 -45 8 -7
15 -27 15 -45 0 -18 7 -38 15 -45 8 -7 15 -20 15 -30 0 -10 7 -23 15 -30 9 -8
15 -30 15 -60 0 -30 6 -52 15 -60 9 -8 15 -30 15 -60 0 -30 6 -52 15 -60 9 -8
15 -30 15 -60 0 -30 6 -52 15 -60 25 -20 18 -42 -52 -175 -54 -101 -91 -154
-177 -254 -228 -264 -554 -574 -806 -766 l-112 -85 -68 0 c-48 0 -71 4 -80 15
-8 9 -30 15 -60 15 -30 0 -52 6 -60 15 -8 9 -30 15 -60 15 -30 0 -52 6 -60 15
-7 8 -27 15 -45 15 -18 0 -38 7 -45 15 -7 8 -27 15 -45 15 -18 0 -38 7 -45 15
-7 8 -27 15 -45 15 -18 0 -38 7 -45 15 -7 8 -27 15 -45 15 -18 0 -38 7 -45 15
-7 8 -20 15 -30 15 -10 0 -23 7 -30 15 -7 8 -27 15 -45 15 -18 0 -38 7 -45 15
-7 8 -26 15 -43 15 -20 0 -41 10 -59 27 -25 24 -28 34 -28 89 0 42 -5 65 -15
74 -9 8 -15 30 -15 60 0 30 -6 52 -15 60 -8 7 -15 20 -15 29 0 9 -20 37 -45
61 -25 24 -45 52 -45 61 0 9 -7 22 -15 29 -8 7 -15 27 -15 46 0 18 7 39 15 48
9 8 15 33 15 60 0 26 6 51 15 60 10 10 15 35 15 75 0 40 5 65 15 75 8 8 15 28
15 45 0 16 7 36 15 45 11 10 15 36 15 90 0 53 4 79 15 90 10 10 15 35 15 75 0
40 5 65 15 75 11 10 15 36 15 85 0 60 5 80 30 128 17 31 30 66 30 79 0 31 28
57 54 50 16 -4 37 11 94 67 39 39 72 79 72 88 0 9 7 22 15 29 8 7 15 20 15 30
0 21 19 30 68 30 20 0 46 7 56 15 11 8 26 15 34 15 7 0 20 7 28 15 10 10 35
15 75 15 40 0 65 5 75 15 12 11 39 15 105 15 67 0 94 4 105 15 9 9 34 15 60
15 27 0 52 6 60 15 11 11 38 15 95 15 45 0 79 4 79 10 0 5 12 13 27 16 15 4
34 13 41 21 8 8 37 13 73 13 40 0 65 5 75 15 26 26 48 17 109 -45z m-3608
-1085 c33 -22 63 -56 84 -97 24 -47 24 -45 -9 -40 -18 2 -33 -2 -41 -12 -19
-23 -272 -24 -295 -1 -8 8 -22 15 -30 15 -9 0 -16 6 -16 14 0 19 58 94 90 118
51 37 161 39 217 3z m-4461 -167 c40 -79 216 -289 409 -487 130 -134 426 -396
563 -499 39 -30 72 -57 72 -61 0 -27 -32 -31 -226 -31 -170 0 -203 2 -208 15
-4 11 -21 15 -60 15 -39 0 -55 4 -60 15 -3 10 -19 15 -45 15 -25 0 -41 5 -45
15 -3 8 -16 15 -30 15 -13 0 -26 7 -30 15 -3 8 -15 15 -26 15 -11 0 -40 20
-63 45 -24 25 -51 45 -60 45 -20 0 -87 65 -87 85 0 8 -22 38 -50 66 -27 28
-50 60 -50 70 0 11 -4 19 -10 19 -5 0 -13 12 -16 27 -4 15 -13 34 -21 41 -7 7
-13 27 -13 43 0 17 -7 37 -15 45 -10 10 -15 35 -15 75 0 40 -5 65 -15 75 -12
12 -15 45 -15 163 0 120 3 151 15 161 11 9 15 33 15 84 l0 71 26 -45 c14 -25
41 -75 60 -112z m8789 5 c22 -8 22 -315 0 -333 -10 -9 -15 -32 -15 -75 0 -43
-5 -66 -15 -75 -8 -7 -15 -27 -15 -45 0 -18 -7 -38 -15 -45 -8 -7 -15 -20 -15
-30 0 -10 -7 -23 -15 -30 -8 -7 -15 -20 -15 -29 0 -9 -20 -37 -45 -61 -25 -24
-45 -51 -45 -59 0 -20 -70 -91 -90 -91 -9 0 -36 -20 -60 -45 -24 -25 -52 -45
-61 -45 -9 0 -22 -7 -29 -15 -7 -8 -20 -15 -30 -15 -10 0 -23 -7 -30 -15 -7
-8 -27 -15 -45 -15 -18 0 -38 -7 -45 -15 -8 -9 -30 -15 -60 -15 -30 0 -52 -6
-60 -15 -10 -12 -47 -15 -216 -15 -128 0 -205 4 -205 10 -1 6 -2 14 -3 19 -1
5 42 42 94 81 237 182 573 502 796 761 83 95 122 152 164 232 l55 106 3 -60
c2 -41 8 -62 17 -66z m-4746 -360 c-152 -696 -242 -968 -395 -1200 -64 -96
-132 -159 -225 -208 -78 -41 -79 -41 -79 -16 0 10 -7 24 -15 31 -8 7 -15 23
-15 35 0 13 -7 25 -15 29 -8 3 -15 16 -15 30 0 13 -7 26 -15 30 -8 3 -15 16
-15 28 -1 13 -14 34 -30 48 -23 18 -30 33 -30 60 -1 26 -8 41 -30 60 -17 13
-30 34 -30 46 0 12 -7 24 -15 28 -10 3 -15 19 -15 45 0 25 -5 41 -15 45 -8 3
-15 16 -15 30 0 13 -7 26 -15 30 -26 10 -17 59 15 86 17 13 30 34 30 46 0 12
7 24 15 28 8 3 15 16 15 30 0 13 7 26 15 30 8 3 15 16 15 30 0 13 7 26 15 30
8 3 15 17 15 31 0 14 7 28 15 31 12 5 15 25 15 88 0 72 3 83 24 104 13 12 33
22 44 22 11 0 22 7 26 15 3 9 19 15 41 15 29 0 43 8 78 45 40 41 48 45 92 45
47 0 49 2 137 90 49 50 97 90 106 90 10 0 29 13 42 30 14 16 34 29 45 30 12 0
32 13 45 30 14 16 35 29 48 30 12 0 25 7 28 15 4 8 16 15 28 15 12 0 33 13 46
30 14 16 28 29 31 30 3 0 -16 -98 -42 -217z m643 157 c9 0 21 -7 28 -15 7 -8
20 -15 29 -15 10 0 30 -13 46 -30 16 -16 36 -30 45 -30 9 0 29 -13 45 -30 16
-16 36 -30 45 -30 8 0 56 -40 105 -90 87 -87 91 -90 135 -90 41 0 50 -5 90
-45 34 -35 52 -45 76 -45 17 0 37 -7 44 -15 7 -8 20 -15 30 -15 10 0 30 -14
45 -32 23 -27 26 -39 24 -93 -2 -58 2 -70 65 -198 38 -74 79 -146 92 -158 27
-26 31 -51 9 -69 -8 -7 -15 -20 -15 -30 0 -10 -7 -23 -15 -30 -8 -7 -15 -27
-15 -45 0 -18 -7 -38 -15 -45 -8 -7 -15 -19 -15 -28 0 -8 -15 -32 -34 -53 -25
-27 -33 -44 -29 -59 4 -15 -3 -31 -24 -53 -28 -30 -103 -167 -103 -189 0 -14
-26 -38 -43 -38 -27 0 -133 77 -180 131 -178 202 -319 580 -481 1287 -41 183
-42 192 -22 173 12 -12 29 -21 38 -21z"/>
<path d="M5511 5629 c-6 -46 -14 -92 -17 -101 -4 -15 1 -18 31 -18 41 0 39
-17 12 134 l-13 70 -13 -85z"/>
<path d="M5497 5226 c-14 -35 23 -67 50 -45 8 7 13 22 11 33 -4 26 -52 35 -61
12z"/>
<path d="M5830 5210 c0 -34 4 -35 82 -20 107 22 108 22 33 36 -109 20 -115 19
-115 -16z"/>
</g>
</svg>
